<svg width="199" height="199" viewBox="0 0 199 199" fill="none" xmlns="http://www.w3.org/2000/svg">
<circle cx="5" cy="5" r="5" fill="#C4C4C4"/>
<circle cx="5" cy="140" r="5" fill="#C4C4C4"/>
<circle cx="5" cy="194" r="5" fill="#C4C4C4"/>
<circle cx="5" cy="167" r="5" fill="#C4C4C4"/>
<circle cx="5" cy="113" r="5" fill="#C4C4C4"/>
<circle cx="5" cy="86" r="5" fill="#C4C4C4"/>
<circle cx="5" cy="59" r="5" fill="#C4C4C4"/>
<circle cx="5" cy="32" r="5" fill="#C4C4C4"/>
<circle cx="32" cy="5" r="5" fill="#C4C4C4"/>
<circle cx="32" cy="140" r="5" fill="#C4C4C4"/>
<circle cx="32" cy="194" r="5" fill="#C4C4C4"/>
<circle cx="32" cy="167" r="5" fill="#C4C4C4"/>
<circle cx="32" cy="113" r="5" fill="#C4C4C4"/>
<circle cx="32" cy="86" r="5" fill="#C4C4C4"/>
<circle cx="32" cy="59" r="5" fill="#C4C4C4"/>
<circle cx="32" cy="32" r="5" fill="#C4C4C4"/>
<circle cx="59" cy="5" r="5" fill="#C4C4C4"/>
<circle cx="59" cy="140" r="5" fill="#C4C4C4"/>
<circle cx="59" cy="194" r="5" fill="#C4C4C4"/>
<circle cx="59" cy="167" r="5" fill="#C4C4C4"/>
<circle cx="59" cy="113" r="5" fill="#C4C4C4"/>
<circle cx="59" cy="86" r="5" fill="#C4C4C4"/>
<circle cx="59" cy="59" r="5" fill="#C4C4C4"/>
<circle cx="59" cy="32" r="5" fill="#C4C4C4"/>
<circle cx="86" cy="5" r="5" fill="#C4C4C4"/>
<circle cx="86" cy="140" r="5" fill="#C4C4C4"/>
<circle cx="86" cy="194" r="5" fill="#C4C4C4"/>
<circle cx="86" cy="167" r="5" fill="#C4C4C4"/>
<circle cx="86" cy="113" r="5" fill="#C4C4C4"/>
<circle cx="86" cy="86" r="5" fill="#C4C4C4"/>
<circle cx="86" cy="59" r="5" fill="#C4C4C4"/>
<circle cx="86" cy="32" r="5" fill="#C4C4C4"/>
<circle cx="113" cy="5" r="5" fill="#C4C4C4"/>
<circle cx="113" cy="140" r="5" fill="#C4C4C4"/>
<circle cx="113" cy="194" r="5" fill="#C4C4C4"/>
<circle cx="113" cy="167" r="5" fill="#C4C4C4"/>
<circle cx="113" cy="113" r="5" fill="#C4C4C4"/>
<circle cx="113" cy="86" r="5" fill="#C4C4C4"/>
<circle cx="113" cy="59" r="5" fill="#C4C4C4"/>
<circle cx="113" cy="32" r="5" fill="#C4C4C4"/>
<circle cx="140" cy="5" r="5" fill="#C4C4C4"/>
<circle cx="140" cy="140" r="5" fill="#C4C4C4"/>
<circle cx="140" cy="194" r="5" fill="#C4C4C4"/>
<circle cx="140" cy="167" r="5" fill="#C4C4C4"/>
<circle cx="140" cy="113" r="5" fill="#C4C4C4"/>
<circle cx="140" cy="86" r="5" fill="#C4C4C4"/>
<circle cx="140" cy="59" r="5" fill="#C4C4C4"/>
<circle cx="140" cy="32" r="5" fill="#C4C4C4"/>
<circle cx="167" cy="5" r="5" fill="#C4C4C4"/>
<circle cx="167" cy="140" r="5" fill="#C4C4C4"/>
<circle cx="167" cy="194" r="5" fill="#C4C4C4"/>
<circle cx="167" cy="167" r="5" fill="#C4C4C4"/>
<circle cx="167" cy="113" r="5" fill="#C4C4C4"/>
<circle cx="167" cy="86" r="5" fill="#C4C4C4"/>
<circle cx="167" cy="59" r="5" fill="#C4C4C4"/>
<circle cx="167" cy="32" r="5" fill="#C4C4C4"/>
<circle cx="194" cy="5" r="5" fill="#C4C4C4"/>
<circle cx="194" cy="140" r="5" fill="#C4C4C4"/>
<circle cx="194" cy="194" r="5" fill="#C4C4C4"/>
<circle cx="194" cy="167" r="5" fill="#C4C4C4"/>
<circle cx="194" cy="113" r="5" fill="#C4C4C4"/>
<circle cx="194" cy="86" r="5" fill="#C4C4C4"/>
<circle cx="194" cy="59" r="5" fill="#C4C4C4"/>
<circle cx="194" cy="32" r="5" fill="#C4C4C4"/>
</svg>
