<svg width="532" height="709" viewBox="0 0 532 709" fill="none" xmlns="http://www.w3.org/2000/svg">
<path d="M117 702.52C117 704.133 116.487 705.453 115.46 706.48C114.433 707.507 113.113 708.02 111.5 708.02L8.09999 708.02C6.48666 708.02 5.16666 707.507 4.14 706.48C3.11333 705.453 2.59999 704.133 2.59999 702.52L2.59999 677.22C2.59999 675.607 3.11332 674.287 4.14 673.26C5.16666 672.087 6.48666 671.5 8.09999 671.5L16.46 671.5C11.62 667.54 7.73333 662.48 4.79999 656.32C1.86666 650.013 0.39999 642.9 0.399989 634.98C0.399989 622.073 4.79999 611.587 13.6 603.52C22.2533 595.453 34.4267 591.42 50.12 591.42L111.5 591.42C112.967 591.42 114.287 591.933 115.46 592.96C116.487 593.987 117 595.307 117 596.92L117 624.64C117 626.107 116.487 627.427 115.46 628.6C114.287 629.627 112.967 630.14 111.5 630.14L51.44 630.14C44.5467 630.14 39.2667 631.827 35.6 635.2C31.7867 638.573 29.88 643.413 29.88 649.72C29.88 655.88 31.7867 660.72 35.6 664.24C39.2667 667.76 44.5467 669.52 51.44 669.52L111.5 669.52C112.967 669.52 114.287 670.033 115.46 671.06C116.487 672.087 117 673.407 117 675.02L117 702.52ZM119.2 512.533C119.2 530.719 114.873 544.726 106.22 554.553C97.5667 564.379 85.3933 569.733 69.7 570.613C67.7933 570.759 64.4933 570.833 59.8 570.833C55.1067 570.833 51.8067 570.759 49.9 570.613C34.3533 569.733 22.2533 564.233 13.6 554.113C4.79999 543.993 0.399985 530.133 0.399984 512.533C0.399983 494.786 4.79998 480.853 13.6 470.733C22.2533 460.613 34.3533 455.113 49.9 454.233C51.8067 454.086 55.1066 454.013 59.8 454.013C64.4933 454.013 67.7933 454.086 69.7 454.233C85.3933 455.113 97.5667 460.466 106.22 470.293C114.873 480.119 119.2 494.199 119.2 512.533ZM92.36 512.533C92.36 506.079 90.4533 501.313 86.64 498.233C82.68 495.153 76.6667 493.393 68.6 492.953C67.1333 492.806 64.2 492.733 59.8 492.733C55.4 492.733 52.4667 492.806 51 492.953C43.08 493.393 37.14 495.226 33.18 498.453C29.22 501.533 27.24 506.226 27.24 512.533C27.24 524.706 35.16 531.159 51 531.893L59.8 532.113L68.6 531.893C76.6667 531.599 82.68 529.913 86.64 526.833C90.4533 523.606 92.36 518.839 92.36 512.533ZM117 426.661C117 428.274 116.487 429.594 115.46 430.621C114.433 431.647 113.113 432.161 111.5 432.161L8.09998 432.161C6.48665 432.161 5.16665 431.647 4.13998 430.621C3.11331 429.594 2.59998 428.274 2.59998 426.661L2.59998 402.681C2.59998 401.067 3.11331 399.747 4.13998 398.721C5.16665 397.694 6.48664 397.181 8.09998 397.181L15.58 397.181C11.18 393.807 7.58664 389.334 4.79997 383.761C1.86664 378.041 0.399978 371.661 0.399978 364.621C0.399977 348.487 6.70664 337.341 19.32 331.181C13.7466 327.661 9.19998 322.747 5.67997 316.441C2.15997 310.134 0.399975 303.387 0.399975 296.201C0.399974 284.174 4.50664 274.421 12.72 266.941C20.7866 259.314 32.8866 255.501 49.02 255.501L111.5 255.501C112.967 255.501 114.287 256.014 115.46 257.041C116.487 258.067 117 259.387 117 261.001L117 286.521C117 288.134 116.487 289.527 115.46 290.701C114.433 291.727 113.113 292.241 111.5 292.241L50.56 292.241C43.2266 292.241 37.9466 293.781 34.72 296.861C31.4933 299.794 29.88 303.827 29.88 308.961C29.88 313.654 31.5666 317.541 34.94 320.621C38.1666 323.701 43.3733 325.241 50.56 325.241L111.5 325.241C112.967 325.241 114.287 325.754 115.46 326.781C116.487 327.807 117 329.127 117 330.741L117 356.261C117 357.874 116.487 359.194 115.46 360.221C114.433 361.247 113.113 361.761 111.5 361.761L50.56 361.761C43.3733 361.761 38.1666 363.374 34.94 366.601C31.5666 369.681 29.88 373.641 29.88 378.481C29.88 383.174 31.5666 387.134 34.94 390.361C38.1666 393.441 43.3 394.981 50.34 394.981L111.5 394.981C112.967 394.981 114.287 395.494 115.46 396.521C116.487 397.547 117 398.867 117 400.481L117 426.661ZM119.2 196.317C119.2 204.091 117.733 211.204 114.8 217.657C111.72 223.964 107.613 228.951 102.48 232.617C97.2 236.137 91.4066 237.897 85.1 237.897C74.98 237.897 66.84 233.791 60.68 225.577C54.52 217.217 50.2666 205.777 47.92 191.257L43.74 163.757L40.66 163.757C35.0866 163.757 30.98 164.931 28.34 167.277C25.7 169.624 24.38 173.584 24.38 179.157C24.38 182.531 24.9666 185.317 26.14 187.517C27.3133 189.717 28.9266 191.991 30.98 194.337C32.74 196.391 33.9133 197.931 34.5 198.957C35.6733 199.397 36.26 200.204 36.26 201.377L36.26 225.357C36.26 226.824 35.82 228.071 34.94 229.097C33.9133 229.977 32.74 230.344 31.42 230.197C27.46 230.051 23.06 228.144 18.22 224.477C13.38 220.664 9.19997 214.944 5.67997 207.317C2.15997 199.544 0.39997 190.011 0.399969 178.717C0.399969 160.677 4.4333 147.331 12.5 138.677C20.42 130.024 31.1266 125.697 44.62 125.697L111.5 125.697C112.967 125.697 114.287 126.211 115.46 127.237C116.487 128.264 117 129.584 117 131.197L117 156.717C117 158.184 116.487 159.504 115.46 160.677C114.287 161.704 112.967 162.217 111.5 162.217L103.8 162.217C108.347 165.444 112.087 169.991 115.02 175.857C117.807 181.577 119.2 188.397 119.2 196.317ZM94.12 185.977C94.12 179.231 91.92 173.804 87.52 169.697C83.12 165.444 76.6666 163.317 68.16 163.317L65.08 163.317L68.38 182.017C70.7266 195.217 75.3466 201.817 82.24 201.817C85.9066 201.817 88.84 200.277 91.04 197.197C93.0933 194.117 94.12 190.377 94.12 185.977Z" fill="black" fill-opacity="0.05"/>
<path d="M48 123.5H41C41 114.7 36 112.833 33.5 113C27.5 113 26 120 26 123.5H19.5C19.5 107.9 28.8333 104.667 33.5 105C47.1 105 48.8333 117.333 48 123.5Z" fill="#794CFB"/>
<rect x="150.097" y="15.6531" width="22" height="8.48528" transform="rotate(-45 150.097 15.6531)" fill="#794CFB"/>
<circle cx="514.5" cy="674.5" r="15" stroke="#794CFB" stroke-width="5"/>
<rect x="64.1508" y="232" width="21" height="21" transform="rotate(-45 64.1508 232)" stroke="#794CFB" stroke-width="5"/>
</svg>
