<svg width="532" height="1053" viewBox="0 0 532 1053" fill="none" xmlns="http://www.w3.org/2000/svg">
<path d="M448.068 31.1203C475.268 3.92026 515.402 -0.879735 532.068 0.120264L530.068 523.12H1.06647C-0.533508 481.52 26.3999 450.453 40.0666 440.12L448.068 31.1203Z" fill="#794CFB"/>
<path d="M32.5366 605.109C5.03075 577.913 0.17678 537.785 1.18802 521.12L530.068 523.12L530.068 1052.05C488 1053.65 456.585 1026.72 446.135 1013.06L32.5366 605.109Z" fill="#794CFB"/>
<ellipse rx="5" ry="5" transform="matrix(-1 0 0 1 441.834 273.12)" fill="#C4C4C4"/>
<ellipse rx="5" ry="5" transform="matrix(-1 0 0 1 441.834 408.12)" fill="#C4C4C4"/>
<ellipse rx="5" ry="5" transform="matrix(-1 0 0 1 441.834 462.12)" fill="#C4C4C4"/>
<ellipse rx="5" ry="5" transform="matrix(-1 0 0 1 441.834 435.12)" fill="#C4C4C4"/>
<ellipse rx="5" ry="5" transform="matrix(-1 0 0 1 441.834 381.12)" fill="#C4C4C4"/>
<ellipse rx="5" ry="5" transform="matrix(-1 0 0 1 441.834 354.12)" fill="#C4C4C4"/>
<ellipse rx="5" ry="5" transform="matrix(-1 0 0 1 441.834 327.12)" fill="#C4C4C4"/>
<ellipse rx="5" ry="5" transform="matrix(-1 0 0 1 441.834 300.12)" fill="#C4C4C4"/>
<ellipse rx="5" ry="5" transform="matrix(-1 0 0 1 414.834 273.12)" fill="#C4C4C4"/>
<ellipse rx="5" ry="5" transform="matrix(-1 0 0 1 414.834 408.12)" fill="#C4C4C4"/>
<ellipse rx="5" ry="5" transform="matrix(-1 0 0 1 414.834 462.12)" fill="#C4C4C4"/>
<ellipse rx="5" ry="5" transform="matrix(-1 0 0 1 414.834 435.12)" fill="#C4C4C4"/>
<ellipse rx="5" ry="5" transform="matrix(-1 0 0 1 414.834 381.12)" fill="#C4C4C4"/>
<ellipse rx="5" ry="5" transform="matrix(-1 0 0 1 414.834 354.12)" fill="#C4C4C4"/>
<ellipse rx="5" ry="5" transform="matrix(-1 0 0 1 414.834 327.12)" fill="#C4C4C4"/>
<ellipse rx="5" ry="5" transform="matrix(-1 0 0 1 414.834 300.12)" fill="#C4C4C4"/>
<ellipse rx="5" ry="5" transform="matrix(-1 0 0 1 387.834 273.12)" fill="#C4C4C4"/>
<ellipse rx="5" ry="5" transform="matrix(-1 0 0 1 387.834 408.12)" fill="#C4C4C4"/>
<ellipse rx="5" ry="5" transform="matrix(-1 0 0 1 387.834 462.12)" fill="#C4C4C4"/>
<ellipse rx="5" ry="5" transform="matrix(-1 0 0 1 387.834 435.12)" fill="#C4C4C4"/>
<ellipse rx="5" ry="5" transform="matrix(-1 0 0 1 387.834 381.12)" fill="#C4C4C4"/>
<ellipse rx="5" ry="5" transform="matrix(-1 0 0 1 387.834 354.12)" fill="#C4C4C4"/>
<ellipse rx="5" ry="5" transform="matrix(-1 0 0 1 387.834 327.12)" fill="#C4C4C4"/>
<ellipse rx="5" ry="5" transform="matrix(-1 0 0 1 387.834 300.12)" fill="#C4C4C4"/>
<ellipse rx="5" ry="5" transform="matrix(-1 0 0 1 360.834 273.12)" fill="#C4C4C4"/>
<ellipse rx="5" ry="5" transform="matrix(-1 0 0 1 360.834 408.12)" fill="#C4C4C4"/>
<ellipse rx="5" ry="5" transform="matrix(-1 0 0 1 360.834 462.12)" fill="#C4C4C4"/>
<ellipse rx="5" ry="5" transform="matrix(-1 0 0 1 360.834 435.12)" fill="#C4C4C4"/>
<ellipse rx="5" ry="5" transform="matrix(-1 0 0 1 360.834 381.12)" fill="#C4C4C4"/>
<ellipse rx="5" ry="5" transform="matrix(-1 0 0 1 360.834 354.12)" fill="#C4C4C4"/>
<ellipse rx="5" ry="5" transform="matrix(-1 0 0 1 360.834 327.12)" fill="#C4C4C4"/>
<ellipse rx="5" ry="5" transform="matrix(-1 0 0 1 360.834 300.12)" fill="#C4C4C4"/>
<ellipse rx="5" ry="5" transform="matrix(-1 0 0 1 333.834 273.12)" fill="#C4C4C4"/>
<ellipse rx="5" ry="5" transform="matrix(-1 0 0 1 333.834 408.12)" fill="#C4C4C4"/>
<ellipse rx="5" ry="5" transform="matrix(-1 0 0 1 333.834 462.12)" fill="#C4C4C4"/>
<ellipse rx="5" ry="5" transform="matrix(-1 0 0 1 333.834 435.12)" fill="#C4C4C4"/>
<ellipse rx="5" ry="5" transform="matrix(-1 0 0 1 333.834 381.12)" fill="#C4C4C4"/>
<ellipse rx="5" ry="5" transform="matrix(-1 0 0 1 333.834 354.12)" fill="#C4C4C4"/>
<ellipse rx="5" ry="5" transform="matrix(-1 0 0 1 333.834 327.12)" fill="#C4C4C4"/>
<ellipse rx="5" ry="5" transform="matrix(-1 0 0 1 333.834 300.12)" fill="#C4C4C4"/>
<ellipse rx="5" ry="5" transform="matrix(-1 0 0 1 306.834 273.12)" fill="#C4C4C4"/>
<ellipse rx="5" ry="5" transform="matrix(-1 0 0 1 306.834 408.12)" fill="#C4C4C4"/>
<ellipse rx="5" ry="5" transform="matrix(-1 0 0 1 306.834 462.12)" fill="#C4C4C4"/>
<ellipse rx="5" ry="5" transform="matrix(-1 0 0 1 306.834 435.12)" fill="#C4C4C4"/>
<ellipse rx="5" ry="5" transform="matrix(-1 0 0 1 306.834 381.12)" fill="#C4C4C4"/>
<ellipse rx="5" ry="5" transform="matrix(-1 0 0 1 306.834 354.12)" fill="#C4C4C4"/>
<ellipse rx="5" ry="5" transform="matrix(-1 0 0 1 306.834 327.12)" fill="#C4C4C4"/>
<ellipse rx="5" ry="5" transform="matrix(-1 0 0 1 306.834 300.12)" fill="#C4C4C4"/>
<ellipse rx="5" ry="5" transform="matrix(-1 0 0 1 279.834 273.12)" fill="#C4C4C4"/>
<ellipse rx="5" ry="5" transform="matrix(-1 0 0 1 279.834 408.12)" fill="#C4C4C4"/>
<ellipse rx="5" ry="5" transform="matrix(-1 0 0 1 279.834 462.12)" fill="#C4C4C4"/>
<ellipse rx="5" ry="5" transform="matrix(-1 0 0 1 279.834 435.12)" fill="#C4C4C4"/>
<ellipse rx="5" ry="5" transform="matrix(-1 0 0 1 279.834 381.12)" fill="#C4C4C4"/>
<ellipse rx="5" ry="5" transform="matrix(-1 0 0 1 279.834 354.12)" fill="#C4C4C4"/>
<ellipse rx="5" ry="5" transform="matrix(-1 0 0 1 279.834 327.12)" fill="#C4C4C4"/>
<ellipse rx="5" ry="5" transform="matrix(-1 0 0 1 279.834 300.12)" fill="#C4C4C4"/>
<ellipse rx="5" ry="5" transform="matrix(-1 0 0 1 252.834 273.12)" fill="#C4C4C4"/>
<ellipse rx="5" ry="5" transform="matrix(-1 0 0 1 252.834 408.12)" fill="#C4C4C4"/>
<ellipse rx="5" ry="5" transform="matrix(-1 0 0 1 252.834 462.12)" fill="#C4C4C4"/>
<ellipse rx="5" ry="5" transform="matrix(-1 0 0 1 252.834 435.12)" fill="#C4C4C4"/>
<ellipse rx="5" ry="5" transform="matrix(-1 0 0 1 252.834 381.12)" fill="#C4C4C4"/>
<ellipse rx="5" ry="5" transform="matrix(-1 0 0 1 252.834 354.12)" fill="#C4C4C4"/>
<ellipse rx="5" ry="5" transform="matrix(-1 0 0 1 252.834 327.12)" fill="#C4C4C4"/>
<ellipse rx="5" ry="5" transform="matrix(-1 0 0 1 252.834 300.12)" fill="#C4C4C4"/>
</svg>
