<svg width="487" height="482" viewBox="0 0 487 482" fill="none" xmlns="http://www.w3.org/2000/svg">
<g filter="url(#filter0_d)">
<mask id="mask0" mask-type="alpha" maskUnits="userSpaceOnUse" x="0" y="0" width="477" height="472">
<rect width="477" height="472" rx="15" fill="#C4C4C4"/>
</mask>
<g mask="url(#mask0)">
<path d="M2 -72H477V879H2V-72Z"/>
<path d="M59.7257 155.527C59.7257 156.06 59.5564 156.495 59.2177 156.834C58.8791 157.173 58.4436 157.342 57.9115 157.342H23.8038C23.2716 157.342 22.8362 157.173 22.4976 156.834C22.1589 156.495 21.9896 156.06 21.9896 155.527V147.179C21.9896 146.646 22.1589 146.211 22.4976 145.872C22.8362 145.485 23.2716 145.291 23.8038 145.291H26.5615C24.9649 143.985 23.6829 142.315 22.7153 140.282C21.7477 138.201 21.2639 135.854 21.2639 133.24C21.2639 128.982 22.7153 125.521 25.6181 122.859C28.4725 120.197 32.488 118.867 37.6646 118.867H57.9115C58.3953 118.867 58.8307 119.036 59.2177 119.375C59.5564 119.713 59.7257 120.149 59.7257 120.681V129.828C59.7257 130.312 59.5564 130.748 59.2177 131.135C58.8307 131.474 58.3953 131.643 57.9115 131.643H38.1C35.8262 131.643 34.0845 132.2 32.875 133.313C31.6171 134.426 30.9882 136.023 30.9882 138.104C30.9882 140.137 31.6171 141.734 32.875 142.896C34.0845 144.057 35.8262 144.638 38.1 144.638L57.9115 144.638C58.3953 144.638 58.8307 144.807 59.2177 145.146C59.5564 145.485 59.7257 145.92 59.7257 146.453V155.527ZM60.4514 92.8354C60.4514 98.8367 59.0242 103.459 56.1698 106.701C53.3154 109.944 49.2999 111.71 44.1233 112.001C43.4943 112.049 42.4058 112.073 40.8576 112.073C39.3095 112.073 38.2209 112.049 37.592 112.001C32.4638 111.71 28.4724 109.895 25.618 106.556C22.7153 103.217 21.2639 98.6431 21.2639 92.8354C21.2639 86.9794 22.7153 82.3817 25.618 79.0423C28.4724 75.7029 32.4638 73.888 37.592 73.5976C38.2209 73.5492 39.3095 73.525 40.8576 73.525C42.4058 73.525 43.4943 73.5492 44.1233 73.5976C49.2999 73.888 53.3154 75.6545 56.1698 78.8971C59.0242 82.1397 60.4514 86.7858 60.4514 92.8354ZM51.5979 92.8354C51.5979 90.706 50.969 89.1331 49.7111 88.1167C48.4049 87.1004 46.4213 86.5196 43.7604 86.3744C43.2766 86.326 42.309 86.3018 40.8576 86.3018C39.4062 86.3018 38.4387 86.326 37.9549 86.3744C35.3424 86.5196 33.383 87.1246 32.0767 88.1893C30.7705 89.2057 30.1174 90.7544 30.1174 92.8354C30.1174 96.8524 32.7299 98.9818 37.9549 99.2238L40.8576 99.2964L43.7604 99.2238C46.4213 99.127 48.4049 98.5705 49.7111 97.5541C50.969 96.4894 51.5979 94.9165 51.5979 92.8354ZM59.7257 64.4994C59.7257 65.0318 59.5564 65.4673 59.2177 65.8061C58.879 66.1449 58.4436 66.3143 57.9115 66.3143H23.8038C23.2716 66.3143 22.8362 66.1449 22.4976 65.8061C22.1589 65.4673 21.9896 65.0318 21.9896 64.4994L21.9896 56.5865C21.9896 56.0541 22.1589 55.6185 22.4976 55.2798C22.8362 54.941 23.2716 54.7716 23.8038 54.7716H26.2712C24.8198 53.6585 23.6345 52.1824 22.7153 50.3433C21.7477 48.4558 21.2639 46.3505 21.2639 44.0275C21.2639 38.7038 23.3442 35.0257 27.5049 32.993C25.6664 31.8315 24.1667 30.2102 23.0055 28.1291C21.8444 26.048 21.2639 23.8218 21.2639 21.4503C21.2639 17.4818 22.6185 14.2634 25.3278 11.7951C27.9886 9.27847 31.98 8.02015 37.3017 8.02015H57.9115C58.3952 8.02015 58.8307 8.18954 59.2177 8.52832C59.5564 8.8671 59.7257 9.30267 59.7257 9.83504V18.2561C59.7257 18.7885 59.5564 19.2482 59.2177 19.6354C58.879 19.9742 58.4436 20.1436 57.9115 20.1436H37.8097C35.3907 20.1436 33.6491 20.6518 32.5847 21.6681C31.5204 22.636 30.9882 23.9669 30.9882 25.6608C30.9882 27.2095 31.5446 28.4921 32.6573 29.5084C33.7216 30.5247 35.4391 31.0329 37.8097 31.0329H57.9115C58.3952 31.0329 58.8307 31.2023 59.2177 31.5411C59.5564 31.8799 59.7257 32.3154 59.7257 32.8478V41.2689C59.7257 41.8012 59.5564 42.2368 59.2177 42.5756C58.879 42.9144 58.4436 43.0837 57.9115 43.0837H37.8097C35.4391 43.0837 33.7216 43.6161 32.6573 44.6808C31.5446 45.6972 30.9882 47.0039 30.9882 48.601C30.9882 50.1497 31.5446 51.4564 32.6573 52.5211C33.7216 53.5375 35.4149 54.0457 37.7371 54.0457H57.9115C58.3952 54.0457 58.8307 54.215 59.2177 54.5538C59.5564 54.8926 59.7257 55.3282 59.7257 55.8605V64.4994ZM60.4514 -11.5091C60.4514 -8.94411 59.9676 -6.59686 59 -4.46739C57.984 -2.38632 56.6294 -0.740829 54.9361 0.469093C53.1944 1.63062 51.2834 2.21139 49.2031 2.21139C45.8649 2.21139 43.1799 0.85627 41.1479 -1.85396C39.116 -4.61259 37.713 -8.38754 36.9389 -13.1788L35.5601 -22.2533H34.5441C32.7057 -22.2533 31.351 -21.8661 30.4802 -21.0917C29.6094 -20.3174 29.1739 -19.0107 29.1739 -17.1716C29.1739 -16.0585 29.3675 -15.1389 29.7545 -14.413C30.1415 -13.687 30.6737 -12.9369 31.351 -12.1625C31.9316 -11.4849 32.3186 -10.9768 32.5121 -10.638C32.8992 -10.4928 33.0927 -10.2266 33.0927 -9.83945V-1.92655C33.0927 -1.44258 32.9476 -1.0312 32.6573 -0.692429C32.3186 -0.402046 31.9316 -0.281059 31.4962 -0.329453C30.1899 -0.377846 28.7385 -1.00701 27.142 -2.21693C25.5455 -3.47526 24.1667 -5.36273 23.0055 -7.87937C21.8444 -10.4444 21.2639 -13.5902 21.2639 -17.3168C21.2639 -23.2696 22.5943 -27.6737 25.2552 -30.5291C27.8677 -33.3846 31.3994 -34.8123 35.8503 -34.8123L57.9114 -34.8123C58.3952 -34.8123 58.8307 -34.6429 59.2177 -34.3041C59.5564 -33.9653 59.7257 -33.5298 59.7257 -32.9974V-24.5763C59.7257 -24.0924 59.5564 -23.6568 59.2177 -23.2696C58.8307 -22.9308 58.3952 -22.7614 57.9114 -22.7614H55.3715C56.8713 -21.6967 58.105 -20.1964 59.0726 -18.2605C59.9918 -16.373 60.4514 -14.1226 60.4514 -11.5091ZM52.1785 -14.9211C52.1785 -17.1474 51.4528 -18.9381 50.0014 -20.2932C48.55 -21.6967 46.4213 -22.3985 43.6153 -22.3985H42.5993L43.6878 -16.2278C44.4619 -11.8721 45.9859 -9.69426 48.2597 -9.69426C49.4692 -9.69426 50.4368 -10.2024 51.1625 -11.2188C51.8398 -12.2351 52.1785 -13.4692 52.1785 -14.9211Z"/>
</g>
</g>
<defs>
<filter id="filter0_d" x="2" y="0" width="485" height="482" filterUnits="userSpaceOnUse" color-interpolation-filters="sRGB">
<feFlood flood-opacity="0" result="BackgroundImageFix"/>
<feColorMatrix in="SourceAlpha" type="matrix" values="0 0 0 0 0 0 0 0 0 0 0 0 0 0 0 0 0 0 127 0"/>
<feOffset dx="5" dy="5"/>
<feGaussianBlur stdDeviation="2.5"/>
<feColorMatrix type="matrix" values="0 0 0 0 0 0 0 0 0 0 0 0 0 0 0 0 0 0 0.07 0"/>
<feBlend mode="normal" in2="BackgroundImageFix" result="effect1_dropShadow"/>
<feBlend mode="normal" in="SourceGraphic" in2="effect1_dropShadow" result="shape"/>
</filter>
</defs>
</svg>
