<svg width="1436" height="1566" viewBox="0 0 1436 1566" fill="none" xmlns="http://www.w3.org/2000/svg">
<path d="M1352.07 177.12C1379.27 149.92 1419.4 145.12 1436.07 146.12L1434.07 669.12H905.066C903.466 627.52 930.399 596.453 944.066 586.12L1352.07 177.12Z" fill="#794CFB"/>
<path d="M936.536 751.109C909.03 723.913 904.176 683.785 905.188 667.12L1434.07 669.12L1434.07 1198.05C1392 1199.65 1360.58 1172.72 1350.13 1159.06L936.536 751.109Z" fill="#794CFB"/>
<ellipse rx="5" ry="5" transform="matrix(-1 0 0 1 1345.83 419.12)" fill="#C4C4C4"/>
<ellipse rx="5" ry="5" transform="matrix(-1 0 0 1 1345.83 554.12)" fill="#C4C4C4"/>
<ellipse rx="5" ry="5" transform="matrix(-1 0 0 1 1345.83 608.12)" fill="#C4C4C4"/>
<ellipse rx="5" ry="5" transform="matrix(-1 0 0 1 1345.83 581.12)" fill="#C4C4C4"/>
<ellipse rx="5" ry="5" transform="matrix(-1 0 0 1 1345.83 527.12)" fill="#C4C4C4"/>
<ellipse rx="5" ry="5" transform="matrix(-1 0 0 1 1345.83 500.12)" fill="#C4C4C4"/>
<ellipse rx="5" ry="5" transform="matrix(-1 0 0 1 1345.83 473.12)" fill="#C4C4C4"/>
<ellipse rx="5" ry="5" transform="matrix(-1 0 0 1 1345.83 446.12)" fill="#C4C4C4"/>
<ellipse rx="5" ry="5" transform="matrix(-1 0 0 1 1318.83 419.12)" fill="#C4C4C4"/>
<ellipse rx="5" ry="5" transform="matrix(-1 0 0 1 1318.83 554.12)" fill="#C4C4C4"/>
<ellipse rx="5" ry="5" transform="matrix(-1 0 0 1 1318.83 608.12)" fill="#C4C4C4"/>
<ellipse rx="5" ry="5" transform="matrix(-1 0 0 1 1318.83 581.12)" fill="#C4C4C4"/>
<ellipse rx="5" ry="5" transform="matrix(-1 0 0 1 1318.83 527.12)" fill="#C4C4C4"/>
<ellipse rx="5" ry="5" transform="matrix(-1 0 0 1 1318.83 500.12)" fill="#C4C4C4"/>
<ellipse rx="5" ry="5" transform="matrix(-1 0 0 1 1318.83 473.12)" fill="#C4C4C4"/>
<ellipse rx="5" ry="5" transform="matrix(-1 0 0 1 1318.83 446.12)" fill="#C4C4C4"/>
<ellipse rx="5" ry="5" transform="matrix(-1 0 0 1 1291.83 419.12)" fill="#C4C4C4"/>
<ellipse rx="5" ry="5" transform="matrix(-1 0 0 1 1291.83 554.12)" fill="#C4C4C4"/>
<ellipse rx="5" ry="5" transform="matrix(-1 0 0 1 1291.83 608.12)" fill="#C4C4C4"/>
<ellipse rx="5" ry="5" transform="matrix(-1 0 0 1 1291.83 581.12)" fill="#C4C4C4"/>
<ellipse rx="5" ry="5" transform="matrix(-1 0 0 1 1291.83 527.12)" fill="#C4C4C4"/>
<ellipse rx="5" ry="5" transform="matrix(-1 0 0 1 1291.83 500.12)" fill="#C4C4C4"/>
<ellipse rx="5" ry="5" transform="matrix(-1 0 0 1 1291.83 473.12)" fill="#C4C4C4"/>
<ellipse rx="5" ry="5" transform="matrix(-1 0 0 1 1291.83 446.12)" fill="#C4C4C4"/>
<ellipse rx="5" ry="5" transform="matrix(-1 0 0 1 1264.83 419.12)" fill="#C4C4C4"/>
<ellipse rx="5" ry="5" transform="matrix(-1 0 0 1 1264.83 554.12)" fill="#C4C4C4"/>
<ellipse rx="5" ry="5" transform="matrix(-1 0 0 1 1264.83 608.12)" fill="#C4C4C4"/>
<ellipse rx="5" ry="5" transform="matrix(-1 0 0 1 1264.83 581.12)" fill="#C4C4C4"/>
<ellipse rx="5" ry="5" transform="matrix(-1 0 0 1 1264.83 527.12)" fill="#C4C4C4"/>
<ellipse rx="5" ry="5" transform="matrix(-1 0 0 1 1264.83 500.12)" fill="#C4C4C4"/>
<ellipse rx="5" ry="5" transform="matrix(-1 0 0 1 1264.83 473.12)" fill="#C4C4C4"/>
<ellipse rx="5" ry="5" transform="matrix(-1 0 0 1 1264.83 446.12)" fill="#C4C4C4"/>
<ellipse rx="5" ry="5" transform="matrix(-1 0 0 1 1237.83 419.12)" fill="#C4C4C4"/>
<ellipse rx="5" ry="5" transform="matrix(-1 0 0 1 1237.83 554.12)" fill="#C4C4C4"/>
<ellipse rx="5" ry="5" transform="matrix(-1 0 0 1 1237.83 608.12)" fill="#C4C4C4"/>
<ellipse rx="5" ry="5" transform="matrix(-1 0 0 1 1237.83 581.12)" fill="#C4C4C4"/>
<ellipse rx="5" ry="5" transform="matrix(-1 0 0 1 1237.83 527.12)" fill="#C4C4C4"/>
<ellipse rx="5" ry="5" transform="matrix(-1 0 0 1 1237.83 500.12)" fill="#C4C4C4"/>
<ellipse rx="5" ry="5" transform="matrix(-1 0 0 1 1237.83 473.12)" fill="#C4C4C4"/>
<ellipse rx="5" ry="5" transform="matrix(-1 0 0 1 1237.83 446.12)" fill="#C4C4C4"/>
<ellipse rx="5" ry="5" transform="matrix(-1 0 0 1 1210.83 419.12)" fill="#C4C4C4"/>
<ellipse rx="5" ry="5" transform="matrix(-1 0 0 1 1210.83 554.12)" fill="#C4C4C4"/>
<ellipse rx="5" ry="5" transform="matrix(-1 0 0 1 1210.83 608.12)" fill="#C4C4C4"/>
<ellipse rx="5" ry="5" transform="matrix(-1 0 0 1 1210.83 581.12)" fill="#C4C4C4"/>
<ellipse rx="5" ry="5" transform="matrix(-1 0 0 1 1210.83 527.12)" fill="#C4C4C4"/>
<ellipse rx="5" ry="5" transform="matrix(-1 0 0 1 1210.83 500.12)" fill="#C4C4C4"/>
<ellipse rx="5" ry="5" transform="matrix(-1 0 0 1 1210.83 473.12)" fill="#C4C4C4"/>
<ellipse rx="5" ry="5" transform="matrix(-1 0 0 1 1210.83 446.12)" fill="#C4C4C4"/>
<ellipse rx="5" ry="5" transform="matrix(-1 0 0 1 1183.83 419.12)" fill="#C4C4C4"/>
<ellipse rx="5" ry="5" transform="matrix(-1 0 0 1 1183.83 554.12)" fill="#C4C4C4"/>
<ellipse rx="5" ry="5" transform="matrix(-1 0 0 1 1183.83 608.12)" fill="#C4C4C4"/>
<ellipse rx="5" ry="5" transform="matrix(-1 0 0 1 1183.83 581.12)" fill="#C4C4C4"/>
<ellipse rx="5" ry="5" transform="matrix(-1 0 0 1 1183.83 527.12)" fill="#C4C4C4"/>
<ellipse rx="5" ry="5" transform="matrix(-1 0 0 1 1183.83 500.12)" fill="#C4C4C4"/>
<ellipse rx="5" ry="5" transform="matrix(-1 0 0 1 1183.83 473.12)" fill="#C4C4C4"/>
<ellipse rx="5" ry="5" transform="matrix(-1 0 0 1 1183.83 446.12)" fill="#C4C4C4"/>
<ellipse rx="5" ry="5" transform="matrix(-1 0 0 1 1156.83 419.12)" fill="#C4C4C4"/>
<ellipse rx="5" ry="5" transform="matrix(-1 0 0 1 1156.83 554.12)" fill="#C4C4C4"/>
<ellipse rx="5" ry="5" transform="matrix(-1 0 0 1 1156.83 608.12)" fill="#C4C4C4"/>
<ellipse rx="5" ry="5" transform="matrix(-1 0 0 1 1156.83 581.12)" fill="#C4C4C4"/>
<ellipse rx="5" ry="5" transform="matrix(-1 0 0 1 1156.83 527.12)" fill="#C4C4C4"/>
<ellipse rx="5" ry="5" transform="matrix(-1 0 0 1 1156.83 500.12)" fill="#C4C4C4"/>
<ellipse rx="5" ry="5" transform="matrix(-1 0 0 1 1156.83 473.12)" fill="#C4C4C4"/>
<ellipse rx="5" ry="5" transform="matrix(-1 0 0 1 1156.83 446.12)" fill="#C4C4C4"/>
<circle cx="73" cy="1372" r="5" fill="#C4C4C4"/>
<circle cx="73" cy="1507" r="5" fill="#C4C4C4"/>
<circle cx="73" cy="1561" r="5" fill="#C4C4C4"/>
<circle cx="73" cy="1534" r="5" fill="#C4C4C4"/>
<circle cx="73" cy="1480" r="5" fill="#C4C4C4"/>
<circle cx="73" cy="1453" r="5" fill="#C4C4C4"/>
<circle cx="73" cy="1426" r="5" fill="#C4C4C4"/>
<circle cx="73" cy="1399" r="5" fill="#C4C4C4"/>
<circle cx="100" cy="1372" r="5" fill="#C4C4C4"/>
<circle cx="100" cy="1507" r="5" fill="#C4C4C4"/>
<circle cx="100" cy="1561" r="5" fill="#C4C4C4"/>
<circle cx="100" cy="1534" r="5" fill="#C4C4C4"/>
<circle cx="100" cy="1480" r="5" fill="#C4C4C4"/>
<circle cx="100" cy="1453" r="5" fill="#C4C4C4"/>
<circle cx="100" cy="1426" r="5" fill="#C4C4C4"/>
<circle cx="100" cy="1399" r="5" fill="#C4C4C4"/>
<circle cx="127" cy="1372" r="5" fill="#C4C4C4"/>
<circle cx="127" cy="1507" r="5" fill="#C4C4C4"/>
<circle cx="127" cy="1561" r="5" fill="#C4C4C4"/>
<circle cx="127" cy="1534" r="5" fill="#C4C4C4"/>
<circle cx="127" cy="1480" r="5" fill="#C4C4C4"/>
<circle cx="127" cy="1453" r="5" fill="#C4C4C4"/>
<circle cx="127" cy="1426" r="5" fill="#C4C4C4"/>
<circle cx="127" cy="1399" r="5" fill="#C4C4C4"/>
<circle cx="154" cy="1372" r="5" fill="#C4C4C4"/>
<circle cx="154" cy="1507" r="5" fill="#C4C4C4"/>
<circle cx="154" cy="1561" r="5" fill="#C4C4C4"/>
<circle cx="154" cy="1534" r="5" fill="#C4C4C4"/>
<circle cx="154" cy="1480" r="5" fill="#C4C4C4"/>
<circle cx="154" cy="1453" r="5" fill="#C4C4C4"/>
<circle cx="154" cy="1426" r="5" fill="#C4C4C4"/>
<circle cx="154" cy="1399" r="5" fill="#C4C4C4"/>
<circle cx="181" cy="1372" r="5" fill="#C4C4C4"/>
<circle cx="181" cy="1507" r="5" fill="#C4C4C4"/>
<circle cx="181" cy="1561" r="5" fill="#C4C4C4"/>
<circle cx="181" cy="1534" r="5" fill="#C4C4C4"/>
<circle cx="181" cy="1480" r="5" fill="#C4C4C4"/>
<circle cx="181" cy="1453" r="5" fill="#C4C4C4"/>
<circle cx="181" cy="1426" r="5" fill="#C4C4C4"/>
<circle cx="181" cy="1399" r="5" fill="#C4C4C4"/>
<circle cx="208" cy="1372" r="5" fill="#C4C4C4"/>
<circle cx="208" cy="1507" r="5" fill="#C4C4C4"/>
<circle cx="208" cy="1561" r="5" fill="#C4C4C4"/>
<circle cx="208" cy="1534" r="5" fill="#C4C4C4"/>
<circle cx="208" cy="1480" r="5" fill="#C4C4C4"/>
<circle cx="208" cy="1453" r="5" fill="#C4C4C4"/>
<circle cx="208" cy="1426" r="5" fill="#C4C4C4"/>
<circle cx="208" cy="1399" r="5" fill="#C4C4C4"/>
<circle cx="235" cy="1372" r="5" fill="#C4C4C4"/>
<circle cx="235" cy="1507" r="5" fill="#C4C4C4"/>
<circle cx="235" cy="1561" r="5" fill="#C4C4C4"/>
<circle cx="235" cy="1534" r="5" fill="#C4C4C4"/>
<circle cx="235" cy="1480" r="5" fill="#C4C4C4"/>
<circle cx="235" cy="1453" r="5" fill="#C4C4C4"/>
<circle cx="235" cy="1426" r="5" fill="#C4C4C4"/>
<circle cx="235" cy="1399" r="5" fill="#C4C4C4"/>
<circle cx="262" cy="1372" r="5" fill="#C4C4C4"/>
<circle cx="262" cy="1507" r="5" fill="#C4C4C4"/>
<circle cx="262" cy="1561" r="5" fill="#C4C4C4"/>
<circle cx="262" cy="1534" r="5" fill="#C4C4C4"/>
<circle cx="262" cy="1480" r="5" fill="#C4C4C4"/>
<circle cx="262" cy="1453" r="5" fill="#C4C4C4"/>
<circle cx="262" cy="1426" r="5" fill="#C4C4C4"/>
<circle cx="262" cy="1399" r="5" fill="#C4C4C4"/>
<path d="M185 702.52C185 704.133 184.486 705.453 183.46 706.48C182.433 707.507 181.113 708.02 179.5 708.02L76.0995 708.02C74.4862 708.02 73.1662 707.507 72.1395 706.48C71.1128 705.453 70.5995 704.133 70.5995 702.52L70.5995 677.22C70.5995 675.607 71.1128 674.287 72.1395 673.26C73.1662 672.087 74.4862 671.5 76.0995 671.5L84.4595 671.5C79.6195 667.54 75.7328 662.48 72.7995 656.32C69.8662 650.013 68.3995 642.9 68.3995 634.98C68.3995 622.073 72.7995 611.587 81.5995 603.52C90.2528 595.453 102.426 591.42 118.12 591.42L179.5 591.42C180.966 591.42 182.286 591.933 183.46 592.96C184.486 593.987 185 595.307 185 596.92L185 624.64C185 626.107 184.486 627.427 183.46 628.6C182.286 629.627 180.966 630.14 179.5 630.14L119.44 630.14C112.546 630.14 107.266 631.827 103.6 635.2C99.7862 638.573 97.8795 643.413 97.8795 649.72C97.8795 655.88 99.7862 660.72 103.6 664.24C107.266 667.76 112.546 669.52 119.44 669.52L179.5 669.52C180.966 669.52 182.286 670.033 183.46 671.06C184.486 672.087 185 673.407 185 675.02L185 702.52ZM187.2 512.533C187.2 530.719 182.873 544.726 174.22 554.553C165.566 564.379 153.393 569.733 137.7 570.613C135.793 570.759 132.493 570.833 127.8 570.833C123.106 570.833 119.806 570.759 117.9 570.613C102.353 569.733 90.2528 564.233 81.5995 554.113C72.7995 543.993 68.3995 530.133 68.3995 512.533C68.3995 494.786 72.7995 480.853 81.5995 470.733C90.2528 460.613 102.353 455.113 117.899 454.233C119.806 454.086 123.106 454.013 127.799 454.013C132.493 454.013 135.793 454.086 137.699 454.233C153.393 455.113 165.566 460.466 174.22 470.293C182.873 480.119 187.2 494.199 187.2 512.533ZM160.36 512.533C160.36 506.079 158.453 501.313 154.639 498.233C150.68 495.153 144.666 493.393 136.599 492.953C135.133 492.806 132.199 492.733 127.799 492.733C123.399 492.733 120.466 492.806 118.999 492.953C111.08 493.393 105.14 495.226 101.179 498.453C97.2195 501.533 95.2395 506.226 95.2395 512.533C95.2395 524.706 103.159 531.159 119 531.893L127.799 532.113L136.6 531.893C144.666 531.599 150.68 529.913 154.64 526.833C158.453 523.606 160.36 518.839 160.36 512.533ZM184.999 426.661C184.999 428.274 184.486 429.594 183.459 430.621C182.433 431.647 181.113 432.161 179.499 432.161L76.0995 432.161C74.4862 432.161 73.1662 431.647 72.1395 430.621C71.1128 429.594 70.5995 428.274 70.5995 426.661L70.5995 402.681C70.5995 401.067 71.1128 399.747 72.1395 398.721C73.1662 397.694 74.4862 397.181 76.0995 397.181L83.5795 397.181C79.1795 393.807 75.5862 389.334 72.7995 383.761C69.8662 378.041 68.3995 371.661 68.3995 364.621C68.3995 348.487 74.7062 337.341 87.3195 331.181C81.7462 327.661 77.1995 322.747 73.6795 316.441C70.1595 310.134 68.3995 303.387 68.3995 296.201C68.3995 284.174 72.5062 274.421 80.7195 266.941C88.7862 259.314 100.886 255.501 117.019 255.501L179.499 255.501C180.966 255.501 182.286 256.014 183.459 257.041C184.486 258.067 184.999 259.387 184.999 261.001L184.999 286.521C184.999 288.134 184.486 289.527 183.459 290.701C182.433 291.727 181.113 292.241 179.499 292.241L118.559 292.241C111.226 292.241 105.946 293.781 102.719 296.861C99.4928 299.794 97.8795 303.827 97.8795 308.961C97.8795 313.654 99.5662 317.541 102.939 320.621C106.166 323.701 111.373 325.241 118.559 325.241L179.499 325.241C180.966 325.241 182.286 325.754 183.459 326.781C184.486 327.807 184.999 329.127 184.999 330.741L184.999 356.261C184.999 357.874 184.486 359.194 183.459 360.221C182.433 361.247 181.113 361.761 179.499 361.761L118.559 361.761C111.373 361.761 106.166 363.374 102.939 366.601C99.5662 369.681 97.8795 373.641 97.8795 378.481C97.8795 383.174 99.5662 387.134 102.939 390.361C106.166 393.441 111.299 394.981 118.339 394.981L179.499 394.981C180.966 394.981 182.286 395.494 183.459 396.521C184.486 397.547 184.999 398.867 184.999 400.481L184.999 426.661ZM187.199 196.317C187.199 204.091 185.733 211.204 182.799 217.657C179.719 223.964 175.613 228.951 170.479 232.617C165.199 236.137 159.406 237.897 153.099 237.897C142.979 237.897 134.839 233.791 128.679 225.577C122.519 217.217 118.266 205.777 115.919 191.257L111.739 163.757L108.659 163.757C103.086 163.757 98.9795 164.931 96.3395 167.277C93.6995 169.624 92.3795 173.584 92.3795 179.157C92.3795 182.531 92.9661 185.317 94.1395 187.517C95.3128 189.717 96.9261 191.991 98.9795 194.337C100.739 196.391 101.913 197.931 102.499 198.957C103.673 199.397 104.259 200.204 104.259 201.377L104.259 225.357C104.259 226.824 103.819 228.071 102.939 229.097C101.913 229.977 100.739 230.344 99.4195 230.197C95.4595 230.051 91.0595 228.144 86.2195 224.477C81.3795 220.664 77.1995 214.944 73.6795 207.317C70.1595 199.544 68.3995 190.011 68.3995 178.717C68.3995 160.677 72.4328 147.331 80.4995 138.677C88.4195 130.024 99.1261 125.697 112.619 125.697L179.499 125.697C180.966 125.697 182.286 126.211 183.459 127.237C184.486 128.264 184.999 129.584 184.999 131.197L184.999 156.717C184.999 158.184 184.486 159.504 183.459 160.677C182.286 161.704 180.966 162.217 179.499 162.217L171.799 162.217C176.346 165.444 180.086 169.991 183.019 175.857C185.806 181.577 187.199 188.397 187.199 196.317ZM162.119 185.977C162.119 179.231 159.919 173.804 155.519 169.697C151.119 165.444 144.666 163.317 136.159 163.317L133.079 163.317L136.379 182.017C138.726 195.217 143.346 201.817 150.239 201.817C153.906 201.817 156.839 200.277 159.039 197.197C161.093 194.117 162.119 190.377 162.119 185.977Z" fill="black" fill-opacity="0.05"/>
<path d="M115 123.5H108C108 114.7 103 112.833 100.5 113C94.5 113 93 120 93 123.5H86.5C86.5 107.9 95.8333 104.667 100.5 105C114.1 105 115.833 117.333 115 123.5Z" fill="#794CFB"/>
<rect x="217.097" y="15.6531" width="22" height="8.48528" transform="rotate(-45 217.097 15.6531)" fill="#794CFB"/>
<circle cx="581.5" cy="674.5" r="15" stroke="#794CFB" stroke-width="5"/>
<rect x="131.151" y="232" width="21" height="21" transform="rotate(-45 131.151 232)" stroke="#794CFB" stroke-width="5"/>
</svg>
