<svg width="1440" height="900" viewBox="0 0 1440 900" fill="none" xmlns="http://www.w3.org/2000/svg">
<mask id="mask0" mask-type="alpha" maskUnits="userSpaceOnUse" x="0" y="0" width="1440" height="900">
<rect width="1440" height="900" fill="#C4C4C4"/>
</mask>
<g mask="url(#mask0)">
<circle cx="599" cy="540.999" r="5" fill="#C4C4C4"/>
<circle cx="599" cy="675.999" r="5" fill="#C4C4C4"/>
<circle cx="599" cy="729.999" r="5" fill="#C4C4C4"/>
<circle cx="599" cy="702.999" r="5" fill="#C4C4C4"/>
<circle cx="599" cy="648.999" r="5" fill="#C4C4C4"/>
<circle cx="599" cy="621.999" r="5" fill="#C4C4C4"/>
<circle cx="599" cy="594.999" r="5" fill="#C4C4C4"/>
<circle cx="599" cy="567.999" r="5" fill="#C4C4C4"/>
<circle cx="626" cy="540.999" r="5" fill="#C4C4C4"/>
<circle cx="626" cy="675.999" r="5" fill="#C4C4C4"/>
<circle cx="626" cy="729.999" r="5" fill="#C4C4C4"/>
<circle cx="626" cy="702.999" r="5" fill="#C4C4C4"/>
<circle cx="626" cy="648.999" r="5" fill="#C4C4C4"/>
<circle cx="626" cy="621.999" r="5" fill="#C4C4C4"/>
<circle cx="626" cy="594.999" r="5" fill="#C4C4C4"/>
<circle cx="626" cy="567.999" r="5" fill="#C4C4C4"/>
<circle cx="653" cy="540.999" r="5" fill="#C4C4C4"/>
<circle cx="653" cy="675.999" r="5" fill="#C4C4C4"/>
<circle cx="653" cy="729.999" r="5" fill="#C4C4C4"/>
<circle cx="653" cy="702.999" r="5" fill="#C4C4C4"/>
<circle cx="653" cy="648.999" r="5" fill="#C4C4C4"/>
<circle cx="653" cy="621.999" r="5" fill="#C4C4C4"/>
<circle cx="653" cy="594.999" r="5" fill="#C4C4C4"/>
<circle cx="653" cy="567.999" r="5" fill="#C4C4C4"/>
<circle cx="680" cy="540.999" r="5" fill="#C4C4C4"/>
<circle cx="680" cy="675.999" r="5" fill="#C4C4C4"/>
<circle cx="680" cy="729.999" r="5" fill="#C4C4C4"/>
<circle cx="680" cy="702.999" r="5" fill="#C4C4C4"/>
<circle cx="680" cy="648.999" r="5" fill="#C4C4C4"/>
<circle cx="680" cy="621.999" r="5" fill="#C4C4C4"/>
<circle cx="680" cy="594.999" r="5" fill="#C4C4C4"/>
<circle cx="680" cy="567.999" r="5" fill="#C4C4C4"/>
<circle cx="707" cy="540.999" r="5" fill="#C4C4C4"/>
<circle cx="707" cy="675.999" r="5" fill="#C4C4C4"/>
<circle cx="707" cy="729.999" r="5" fill="#C4C4C4"/>
<circle cx="707" cy="702.999" r="5" fill="#C4C4C4"/>
<circle cx="707" cy="648.999" r="5" fill="#C4C4C4"/>
<circle cx="707" cy="621.999" r="5" fill="#C4C4C4"/>
<circle cx="707" cy="594.999" r="5" fill="#C4C4C4"/>
<circle cx="707" cy="567.999" r="5" fill="#C4C4C4"/>
<circle cx="734" cy="540.999" r="5" fill="#C4C4C4"/>
<circle cx="734" cy="675.999" r="5" fill="#C4C4C4"/>
<circle cx="734" cy="729.999" r="5" fill="#C4C4C4"/>
<circle cx="734" cy="702.999" r="5" fill="#C4C4C4"/>
<circle cx="734" cy="648.999" r="5" fill="#C4C4C4"/>
<circle cx="734" cy="621.999" r="5" fill="#C4C4C4"/>
<circle cx="734" cy="594.999" r="5" fill="#C4C4C4"/>
<circle cx="734" cy="567.999" r="5" fill="#C4C4C4"/>
<circle cx="761" cy="540.999" r="5" fill="#C4C4C4"/>
<circle cx="761" cy="675.999" r="5" fill="#C4C4C4"/>
<circle cx="761" cy="729.999" r="5" fill="#C4C4C4"/>
<circle cx="761" cy="702.999" r="5" fill="#C4C4C4"/>
<circle cx="761" cy="648.999" r="5" fill="#C4C4C4"/>
<circle cx="761" cy="621.999" r="5" fill="#C4C4C4"/>
<circle cx="761" cy="594.999" r="5" fill="#C4C4C4"/>
<circle cx="761" cy="567.999" r="5" fill="#C4C4C4"/>
<circle cx="788" cy="540.999" r="5" fill="#C4C4C4"/>
<circle cx="788" cy="675.999" r="5" fill="#C4C4C4"/>
<circle cx="788" cy="729.999" r="5" fill="#C4C4C4"/>
<circle cx="788" cy="702.999" r="5" fill="#C4C4C4"/>
<circle cx="788" cy="648.999" r="5" fill="#C4C4C4"/>
<circle cx="788" cy="621.999" r="5" fill="#C4C4C4"/>
<circle cx="788" cy="594.999" r="5" fill="#C4C4C4"/>
<circle cx="788" cy="567.999" r="5" fill="#C4C4C4"/>
<path d="M189 746.519C189 748.132 188.486 749.452 187.46 750.479C186.433 751.506 185.113 752.019 183.5 752.019L80.0995 752.019C78.4862 752.019 77.1662 751.506 76.1395 750.479C75.1128 749.452 74.5995 748.132 74.5995 746.519L74.5995 721.219C74.5995 719.606 75.1128 718.286 76.1395 717.259C77.1662 716.086 78.4862 715.499 80.0995 715.499L88.4595 715.499C83.6195 711.539 79.7328 706.479 76.7995 700.319C73.8662 694.012 72.3995 686.899 72.3995 678.979C72.3995 666.072 76.7995 655.586 85.5995 647.519C94.2528 639.452 106.426 635.419 122.12 635.419L183.5 635.419C184.966 635.419 186.286 635.932 187.46 636.959C188.486 637.986 189 639.306 189 640.919L189 668.639C189 670.106 188.486 671.426 187.46 672.599C186.286 673.626 184.966 674.139 183.5 674.139L123.44 674.139C116.546 674.139 111.266 675.826 107.6 679.199C103.786 682.572 101.88 687.412 101.88 693.719C101.88 699.879 103.786 704.719 107.6 708.239C111.266 711.759 116.546 713.519 123.44 713.519L183.5 713.519C184.966 713.519 186.286 714.032 187.46 715.059C188.486 716.086 189 717.406 189 719.019L189 746.519ZM191.2 556.532C191.2 574.718 186.873 588.725 178.22 598.552C169.566 608.378 157.393 613.732 141.7 614.612C139.793 614.758 136.493 614.832 131.8 614.832C127.106 614.832 123.806 614.758 121.9 614.612C106.353 613.732 94.2528 608.232 85.5995 598.112C76.7995 587.992 72.3995 574.132 72.3995 556.532C72.3995 538.785 76.7995 524.852 85.5995 514.732C94.2528 504.612 106.353 499.112 121.899 498.232C123.806 498.085 127.106 498.012 131.799 498.012C136.493 498.012 139.793 498.085 141.699 498.232C157.393 499.112 169.566 504.465 178.22 514.292C186.873 524.118 191.2 538.198 191.2 556.532ZM164.36 556.532C164.36 550.078 162.453 545.312 158.639 542.232C154.68 539.152 148.666 537.392 140.599 536.952C139.133 536.805 136.199 536.732 131.799 536.732C127.399 536.732 124.466 536.805 122.999 536.952C115.08 537.392 109.14 539.225 105.179 542.452C101.219 545.532 99.2395 550.225 99.2395 556.532C99.2395 568.705 107.159 575.158 123 575.892L131.799 576.112L140.6 575.892C148.666 575.598 154.68 573.912 158.64 570.832C162.453 567.605 164.36 562.838 164.36 556.532ZM188.999 470.66C188.999 472.273 188.486 473.593 187.459 474.62C186.433 475.646 185.113 476.16 183.499 476.16L80.0995 476.16C78.4862 476.16 77.1662 475.646 76.1395 474.62C75.1128 473.593 74.5995 472.273 74.5995 470.66L74.5995 446.68C74.5995 445.066 75.1128 443.746 76.1395 442.72C77.1662 441.693 78.4862 441.18 80.0995 441.18L87.5795 441.18C83.1795 437.806 79.5862 433.333 76.7995 427.76C73.8662 422.04 72.3995 415.66 72.3995 408.62C72.3995 392.486 78.7062 381.34 91.3195 375.18C85.7462 371.66 81.1995 366.746 77.6795 360.44C74.1595 354.133 72.3995 347.386 72.3995 340.2C72.3995 328.173 76.5062 318.42 84.7195 310.94C92.7862 303.313 104.886 299.5 121.019 299.5L183.499 299.5C184.966 299.5 186.286 300.013 187.459 301.04C188.486 302.066 188.999 303.386 188.999 305L188.999 330.52C188.999 332.133 188.486 333.526 187.459 334.7C186.433 335.726 185.113 336.24 183.499 336.24L122.559 336.24C115.226 336.24 109.946 337.78 106.719 340.86C103.493 343.793 101.879 347.826 101.879 352.96C101.879 357.653 103.566 361.54 106.939 364.62C110.166 367.7 115.373 369.24 122.559 369.24L183.499 369.24C184.966 369.24 186.286 369.753 187.459 370.78C188.486 371.806 188.999 373.126 188.999 374.74L188.999 400.26C188.999 401.873 188.486 403.193 187.459 404.22C186.433 405.246 185.113 405.76 183.499 405.76L122.559 405.76C115.373 405.76 110.166 407.373 106.939 410.6C103.566 413.68 101.879 417.64 101.879 422.48C101.879 427.173 103.566 431.133 106.939 434.36C110.166 437.44 115.299 438.98 122.339 438.98L183.499 438.98C184.966 438.98 186.286 439.493 187.459 440.52C188.486 441.546 188.999 442.866 188.999 444.48L188.999 470.66ZM191.199 240.316C191.199 248.09 189.733 255.203 186.799 261.656C183.719 267.963 179.613 272.95 174.479 276.616C169.199 280.136 163.406 281.896 157.099 281.896C146.979 281.896 138.839 277.79 132.679 269.576C126.519 261.216 122.266 249.776 119.919 235.256L115.739 207.756L112.659 207.756C107.086 207.756 102.979 208.93 100.339 211.276C97.6995 213.623 96.3795 217.583 96.3795 223.156C96.3795 226.53 96.9661 229.316 98.1395 231.516C99.3128 233.716 100.926 235.99 102.979 238.336C104.739 240.39 105.913 241.93 106.499 242.956C107.673 243.396 108.259 244.203 108.259 245.376L108.259 269.356C108.259 270.823 107.819 272.07 106.939 273.096C105.913 273.976 104.739 274.343 103.419 274.196C99.4595 274.05 95.0595 272.143 90.2195 268.476C85.3795 264.663 81.1995 258.943 77.6795 251.316C74.1595 243.543 72.3995 234.01 72.3995 222.716C72.3995 204.676 76.4328 191.33 84.4995 182.676C92.4195 174.023 103.126 169.696 116.619 169.696L183.499 169.696C184.966 169.696 186.286 170.21 187.459 171.236C188.486 172.263 188.999 173.583 188.999 175.196L188.999 200.716C188.999 202.183 188.486 203.503 187.459 204.676C186.286 205.703 184.966 206.216 183.499 206.216L175.799 206.216C180.346 209.443 184.086 213.99 187.019 219.856C189.806 225.576 191.199 232.396 191.199 240.316ZM166.119 229.976C166.119 223.23 163.919 217.803 159.519 213.696C155.119 209.443 148.666 207.316 140.159 207.316L137.079 207.316L140.379 226.016C142.726 239.216 147.346 245.816 154.239 245.816C157.906 245.816 160.839 244.276 163.039 241.196C165.093 238.116 166.119 234.376 166.119 229.976Z" fill="black" fill-opacity="0.05"/>
<path d="M723.5 348.523H716.5C716.5 339.723 711.5 337.856 709 338.023C703 338.023 701.5 345.023 701.5 348.523H695C695 332.923 704.333 329.689 709 330.023C722.6 330.023 724.333 342.356 723.5 348.523Z" fill="#794CFB"/>
<rect x="427" y="41" width="22" height="8.48528" transform="rotate(-45 427 41)" fill="#794CFB"/>
<circle cx="1042.5" cy="42.5" r="15" stroke="#794CFB" stroke-width="5"/>
<rect x="135.151" y="276.002" width="21" height="21" transform="rotate(-45 135.151 276.002)" stroke="#794CFB" stroke-width="5"/>
</g>
</svg>
