<svg width="1440" height="850" viewBox="0 0 1440 850" fill="none" xmlns="http://www.w3.org/2000/svg">
<circle cx="96" cy="542.003" r="5" fill="#C4C4C4"/>
<circle cx="96" cy="677.003" r="5" fill="#C4C4C4"/>
<circle cx="96" cy="731.003" r="5" fill="#C4C4C4"/>
<circle cx="96" cy="704.003" r="5" fill="#C4C4C4"/>
<circle cx="96" cy="650.003" r="5" fill="#C4C4C4"/>
<circle cx="96" cy="623.003" r="5" fill="#C4C4C4"/>
<circle cx="96" cy="596.003" r="5" fill="#C4C4C4"/>
<circle cx="96" cy="569.003" r="5" fill="#C4C4C4"/>
<circle cx="123" cy="542.003" r="5" fill="#C4C4C4"/>
<circle cx="123" cy="677.003" r="5" fill="#C4C4C4"/>
<circle cx="123" cy="731.003" r="5" fill="#C4C4C4"/>
<circle cx="123" cy="704.003" r="5" fill="#C4C4C4"/>
<circle cx="123" cy="650.003" r="5" fill="#C4C4C4"/>
<circle cx="123" cy="623.003" r="5" fill="#C4C4C4"/>
<circle cx="123" cy="596.003" r="5" fill="#C4C4C4"/>
<circle cx="123" cy="569.003" r="5" fill="#C4C4C4"/>
<circle cx="150" cy="542.003" r="5" fill="#C4C4C4"/>
<circle cx="150" cy="677.003" r="5" fill="#C4C4C4"/>
<circle cx="150" cy="731.003" r="5" fill="#C4C4C4"/>
<circle cx="150" cy="704.003" r="5" fill="#C4C4C4"/>
<circle cx="150" cy="650.003" r="5" fill="#C4C4C4"/>
<circle cx="150" cy="623.003" r="5" fill="#C4C4C4"/>
<circle cx="150" cy="596.003" r="5" fill="#C4C4C4"/>
<circle cx="150" cy="569.003" r="5" fill="#C4C4C4"/>
<circle cx="177" cy="542.003" r="5" fill="#C4C4C4"/>
<circle cx="177" cy="677.003" r="5" fill="#C4C4C4"/>
<circle cx="177" cy="731.003" r="5" fill="#C4C4C4"/>
<circle cx="177" cy="704.003" r="5" fill="#C4C4C4"/>
<circle cx="177" cy="650.003" r="5" fill="#C4C4C4"/>
<circle cx="177" cy="623.003" r="5" fill="#C4C4C4"/>
<circle cx="177" cy="596.003" r="5" fill="#C4C4C4"/>
<circle cx="177" cy="569.003" r="5" fill="#C4C4C4"/>
<circle cx="204" cy="542.003" r="5" fill="#C4C4C4"/>
<circle cx="204" cy="677.003" r="5" fill="#C4C4C4"/>
<circle cx="204" cy="731.003" r="5" fill="#C4C4C4"/>
<circle cx="204" cy="704.003" r="5" fill="#C4C4C4"/>
<circle cx="204" cy="650.003" r="5" fill="#C4C4C4"/>
<circle cx="204" cy="623.003" r="5" fill="#C4C4C4"/>
<circle cx="204" cy="596.003" r="5" fill="#C4C4C4"/>
<circle cx="204" cy="569.003" r="5" fill="#C4C4C4"/>
<circle cx="231" cy="542.003" r="5" fill="#C4C4C4"/>
<circle cx="231" cy="677.003" r="5" fill="#C4C4C4"/>
<circle cx="231" cy="731.003" r="5" fill="#C4C4C4"/>
<circle cx="231" cy="704.003" r="5" fill="#C4C4C4"/>
<circle cx="231" cy="650.003" r="5" fill="#C4C4C4"/>
<circle cx="231" cy="623.003" r="5" fill="#C4C4C4"/>
<circle cx="231" cy="596.003" r="5" fill="#C4C4C4"/>
<circle cx="231" cy="569.003" r="5" fill="#C4C4C4"/>
<circle cx="258" cy="542.003" r="5" fill="#C4C4C4"/>
<circle cx="258" cy="677.003" r="5" fill="#C4C4C4"/>
<circle cx="258" cy="731.003" r="5" fill="#C4C4C4"/>
<circle cx="258" cy="704.003" r="5" fill="#C4C4C4"/>
<circle cx="258" cy="650.003" r="5" fill="#C4C4C4"/>
<circle cx="258" cy="623.003" r="5" fill="#C4C4C4"/>
<circle cx="258" cy="596.003" r="5" fill="#C4C4C4"/>
<circle cx="258" cy="569.003" r="5" fill="#C4C4C4"/>
<circle cx="285" cy="542.003" r="5" fill="#C4C4C4"/>
<circle cx="285" cy="677.003" r="5" fill="#C4C4C4"/>
<circle cx="285" cy="731.003" r="5" fill="#C4C4C4"/>
<circle cx="285" cy="704.003" r="5" fill="#C4C4C4"/>
<circle cx="285" cy="650.003" r="5" fill="#C4C4C4"/>
<circle cx="285" cy="623.003" r="5" fill="#C4C4C4"/>
<circle cx="285" cy="596.003" r="5" fill="#C4C4C4"/>
<circle cx="285" cy="569.003" r="5" fill="#C4C4C4"/>
<path d="M659.523 63.1746L659.523 70.1746C650.722 70.1746 648.856 75.1746 649.023 77.6746C649.023 83.6746 656.023 85.1746 659.523 85.1746L659.523 91.6746C643.923 91.6746 640.689 82.3412 641.023 77.6746C641.023 64.0746 653.356 62.3412 659.523 63.1746Z" fill="#794CFB"/>
<rect x="144.556" y="113.559" width="22" height="8.48528" transform="rotate(-135 144.556 113.559)" fill="#794CFB"/>
<circle cx="1363.5" cy="306.503" r="15" transform="rotate(-90 1363.5 306.503)" stroke="#794CFB" stroke-width="5"/>
<rect x="1089.39" y="759.237" width="21" height="21" transform="rotate(-135 1089.39 759.237)" stroke="#794CFB" stroke-width="5"/>
<path d="M1206 145.48C1206 143.867 1206.51 142.547 1207.54 141.52C1208.57 140.493 1209.89 139.98 1211.5 139.98L1314.9 139.98C1316.51 139.98 1317.83 140.493 1318.86 141.52C1319.89 142.547 1320.4 143.867 1320.4 145.48L1320.4 170.78C1320.4 172.393 1319.89 173.713 1318.86 174.74C1317.83 175.913 1316.51 176.5 1314.9 176.5L1306.54 176.5C1311.38 180.46 1315.27 185.52 1318.2 191.68C1321.13 197.987 1322.6 205.1 1322.6 213.02C1322.6 225.927 1318.2 236.413 1309.4 244.48C1300.75 252.547 1288.57 256.58 1272.88 256.58L1211.5 256.58C1210.03 256.58 1208.71 256.067 1207.54 255.04C1206.51 254.013 1206 252.693 1206 251.08L1206 223.36C1206 221.893 1206.51 220.573 1207.54 219.4C1208.71 218.373 1210.03 217.86 1211.5 217.86L1271.56 217.86C1278.45 217.86 1283.73 216.173 1287.4 212.8C1291.21 209.427 1293.12 204.587 1293.12 198.28C1293.12 192.12 1291.21 187.28 1287.4 183.76C1283.73 180.24 1278.45 178.48 1271.56 178.48L1211.5 178.48C1210.03 178.48 1208.71 177.967 1207.54 176.94C1206.51 175.913 1206 174.593 1206 172.98L1206 145.48ZM1203.8 335.467C1203.8 317.281 1208.13 303.274 1216.78 293.447C1225.43 283.621 1237.61 278.267 1253.3 277.387C1255.21 277.241 1258.51 277.167 1263.2 277.167C1267.89 277.167 1271.19 277.241 1273.1 277.387C1288.65 278.267 1300.75 283.767 1309.4 293.887C1318.2 304.007 1322.6 317.867 1322.6 335.467C1322.6 353.214 1318.2 367.147 1309.4 377.267C1300.75 387.387 1288.65 392.887 1273.1 393.767C1271.19 393.914 1267.89 393.987 1263.2 393.987C1258.51 393.987 1255.21 393.914 1253.3 393.767C1237.61 392.887 1225.43 387.534 1216.78 377.707C1208.13 367.881 1203.8 353.801 1203.8 335.467ZM1230.64 335.467C1230.64 341.921 1232.55 346.687 1236.36 349.767C1240.32 352.847 1246.33 354.607 1254.4 355.047C1255.87 355.194 1258.8 355.267 1263.2 355.267C1267.6 355.267 1270.53 355.194 1272 355.047C1279.92 354.607 1285.86 352.774 1289.82 349.547C1293.78 346.467 1295.76 341.774 1295.76 335.467C1295.76 323.294 1287.84 316.841 1272 316.107L1263.2 315.887L1254.4 316.107C1246.33 316.401 1240.32 318.087 1236.36 321.167C1232.55 324.394 1230.64 329.161 1230.64 335.467ZM1206 421.339C1206 419.726 1206.51 418.406 1207.54 417.379C1208.57 416.353 1209.89 415.839 1211.5 415.839L1314.9 415.839C1316.51 415.839 1317.83 416.353 1318.86 417.379C1319.89 418.406 1320.4 419.726 1320.4 421.339L1320.4 445.319C1320.4 446.933 1319.89 448.253 1318.86 449.279C1317.83 450.306 1316.51 450.819 1314.9 450.819L1307.42 450.819C1311.82 454.193 1315.41 458.666 1318.2 464.239C1321.13 469.959 1322.6 476.339 1322.6 483.379C1322.6 499.513 1316.29 510.659 1303.68 516.819C1309.25 520.339 1313.8 525.253 1317.32 531.559C1320.84 537.866 1322.6 544.613 1322.6 551.799C1322.6 563.826 1318.49 573.579 1310.28 581.059C1302.21 588.686 1290.11 592.499 1273.98 592.499L1211.5 592.499C1210.03 592.499 1208.71 591.986 1207.54 590.959C1206.51 589.933 1206 588.613 1206 586.999L1206 561.479C1206 559.866 1206.51 558.473 1207.54 557.299C1208.57 556.273 1209.89 555.759 1211.5 555.759L1272.44 555.759C1279.77 555.759 1285.05 554.219 1288.28 551.139C1291.51 548.206 1293.12 544.173 1293.12 539.039C1293.12 534.346 1291.43 530.459 1288.06 527.379C1284.83 524.299 1279.63 522.759 1272.44 522.759L1211.5 522.759C1210.03 522.759 1208.71 522.246 1207.54 521.219C1206.51 520.193 1206 518.873 1206 517.259L1206 491.739C1206 490.126 1206.51 488.806 1207.54 487.779C1208.57 486.753 1209.89 486.239 1211.5 486.239L1272.44 486.239C1279.63 486.239 1284.83 484.626 1288.06 481.399C1291.43 478.319 1293.12 474.359 1293.12 469.519C1293.12 464.826 1291.43 460.866 1288.06 457.639C1284.83 454.559 1279.7 453.019 1272.66 453.019L1211.5 453.019C1210.03 453.019 1208.71 452.506 1207.54 451.479C1206.51 450.453 1206 449.133 1206 447.519L1206 421.339ZM1203.8 651.683C1203.8 643.909 1205.27 636.796 1208.2 630.343C1211.28 624.036 1215.39 619.049 1220.52 615.383C1225.8 611.863 1231.59 610.103 1237.9 610.103C1248.02 610.103 1256.16 614.209 1262.32 622.423C1268.48 630.783 1272.73 642.223 1275.08 656.743L1279.26 684.243L1282.34 684.243C1287.91 684.243 1292.02 683.069 1294.66 680.723C1297.3 678.376 1298.62 674.416 1298.62 668.843C1298.62 665.469 1298.03 662.683 1296.86 660.483C1295.69 658.283 1294.07 656.009 1292.02 653.663C1290.26 651.609 1289.09 650.069 1288.5 649.043C1287.33 648.603 1286.74 647.796 1286.74 646.623L1286.74 622.643C1286.74 621.176 1287.18 619.929 1288.06 618.903C1289.09 618.023 1290.26 617.656 1291.58 617.803C1295.54 617.949 1299.94 619.856 1304.78 623.523C1309.62 627.336 1313.8 633.056 1317.32 640.683C1320.84 648.456 1322.6 657.989 1322.6 669.283C1322.6 687.323 1318.57 700.669 1310.5 709.323C1302.58 717.976 1291.87 722.303 1278.38 722.303L1211.5 722.303C1210.03 722.303 1208.71 721.789 1207.54 720.763C1206.51 719.736 1206 718.416 1206 716.803L1206 691.283C1206 689.816 1206.51 688.496 1207.54 687.323C1208.71 686.296 1210.03 685.783 1211.5 685.783L1219.2 685.783C1214.65 682.556 1210.91 678.009 1207.98 672.143C1205.19 666.423 1203.8 659.603 1203.8 651.683ZM1228.88 662.023C1228.88 668.769 1231.08 674.196 1235.48 678.303C1239.88 682.556 1246.33 684.683 1254.84 684.683L1257.92 684.683L1254.62 665.983C1252.27 652.783 1247.65 646.183 1240.76 646.183C1237.09 646.183 1234.16 647.723 1231.96 650.803C1229.91 653.883 1228.88 657.623 1228.88 662.023Z" fill="black" fill-opacity="0.05"/>
</svg>
