<svg width="1322" height="726" viewBox="0 0 1322 726" fill="none" xmlns="http://www.w3.org/2000/svg">
<circle cx="5" cy="444" r="5" fill="#C4C4C4"/>
<circle cx="5" cy="579" r="5" fill="#C4C4C4"/>
<circle cx="5" cy="633" r="5" fill="#C4C4C4"/>
<circle cx="5" cy="606" r="5" fill="#C4C4C4"/>
<circle cx="5" cy="552" r="5" fill="#C4C4C4"/>
<circle cx="5" cy="525" r="5" fill="#C4C4C4"/>
<circle cx="5" cy="498" r="5" fill="#C4C4C4"/>
<circle cx="5" cy="471" r="5" fill="#C4C4C4"/>
<circle cx="32" cy="444" r="5" fill="#C4C4C4"/>
<circle cx="32" cy="579" r="5" fill="#C4C4C4"/>
<circle cx="32" cy="633" r="5" fill="#C4C4C4"/>
<circle cx="32" cy="606" r="5" fill="#C4C4C4"/>
<circle cx="32" cy="552" r="5" fill="#C4C4C4"/>
<circle cx="32" cy="525" r="5" fill="#C4C4C4"/>
<circle cx="32" cy="498" r="5" fill="#C4C4C4"/>
<circle cx="32" cy="471" r="5" fill="#C4C4C4"/>
<circle cx="59" cy="444" r="5" fill="#C4C4C4"/>
<circle cx="59" cy="579" r="5" fill="#C4C4C4"/>
<circle cx="59" cy="633" r="5" fill="#C4C4C4"/>
<circle cx="59" cy="606" r="5" fill="#C4C4C4"/>
<circle cx="59" cy="552" r="5" fill="#C4C4C4"/>
<circle cx="59" cy="525" r="5" fill="#C4C4C4"/>
<circle cx="59" cy="498" r="5" fill="#C4C4C4"/>
<circle cx="59" cy="471" r="5" fill="#C4C4C4"/>
<circle cx="86" cy="444" r="5" fill="#C4C4C4"/>
<circle cx="86" cy="579" r="5" fill="#C4C4C4"/>
<circle cx="86" cy="633" r="5" fill="#C4C4C4"/>
<circle cx="86" cy="606" r="5" fill="#C4C4C4"/>
<circle cx="86" cy="552" r="5" fill="#C4C4C4"/>
<circle cx="86" cy="525" r="5" fill="#C4C4C4"/>
<circle cx="86" cy="498" r="5" fill="#C4C4C4"/>
<circle cx="86" cy="471" r="5" fill="#C4C4C4"/>
<circle cx="113" cy="444" r="5" fill="#C4C4C4"/>
<circle cx="113" cy="579" r="5" fill="#C4C4C4"/>
<circle cx="113" cy="633" r="5" fill="#C4C4C4"/>
<circle cx="113" cy="606" r="5" fill="#C4C4C4"/>
<circle cx="113" cy="552" r="5" fill="#C4C4C4"/>
<circle cx="113" cy="525" r="5" fill="#C4C4C4"/>
<circle cx="113" cy="498" r="5" fill="#C4C4C4"/>
<circle cx="113" cy="471" r="5" fill="#C4C4C4"/>
<circle cx="140" cy="444" r="5" fill="#C4C4C4"/>
<circle cx="140" cy="579" r="5" fill="#C4C4C4"/>
<circle cx="140" cy="633" r="5" fill="#C4C4C4"/>
<circle cx="140" cy="606" r="5" fill="#C4C4C4"/>
<circle cx="140" cy="552" r="5" fill="#C4C4C4"/>
<circle cx="140" cy="525" r="5" fill="#C4C4C4"/>
<circle cx="140" cy="498" r="5" fill="#C4C4C4"/>
<circle cx="140" cy="471" r="5" fill="#C4C4C4"/>
<circle cx="167" cy="444" r="5" fill="#C4C4C4"/>
<circle cx="167" cy="579" r="5" fill="#C4C4C4"/>
<circle cx="167" cy="633" r="5" fill="#C4C4C4"/>
<circle cx="167" cy="606" r="5" fill="#C4C4C4"/>
<circle cx="167" cy="552" r="5" fill="#C4C4C4"/>
<circle cx="167" cy="525" r="5" fill="#C4C4C4"/>
<circle cx="167" cy="498" r="5" fill="#C4C4C4"/>
<circle cx="167" cy="471" r="5" fill="#C4C4C4"/>
<circle cx="194" cy="444" r="5" fill="#C4C4C4"/>
<circle cx="194" cy="579" r="5" fill="#C4C4C4"/>
<circle cx="194" cy="633" r="5" fill="#C4C4C4"/>
<circle cx="194" cy="606" r="5" fill="#C4C4C4"/>
<circle cx="194" cy="552" r="5" fill="#C4C4C4"/>
<circle cx="194" cy="525" r="5" fill="#C4C4C4"/>
<circle cx="194" cy="498" r="5" fill="#C4C4C4"/>
<circle cx="194" cy="471" r="5" fill="#C4C4C4"/>
<path d="M1116 18.48C1116 16.8667 1116.51 15.5467 1117.54 14.52C1118.57 13.4933 1119.89 12.98 1121.5 12.98L1224.9 12.98C1226.51 12.98 1227.83 13.4933 1228.86 14.52C1229.89 15.5467 1230.4 16.8667 1230.4 18.48L1230.4 43.78C1230.4 45.3933 1229.89 46.7133 1228.86 47.74C1227.83 48.9133 1226.51 49.5 1224.9 49.5L1216.54 49.5C1221.38 53.46 1225.27 58.52 1228.2 64.68C1231.13 70.9867 1232.6 78.1 1232.6 86.02C1232.6 98.9267 1228.2 109.413 1219.4 117.48C1210.75 125.547 1198.57 129.58 1182.88 129.58L1121.5 129.58C1120.03 129.58 1118.71 129.067 1117.54 128.04C1116.51 127.013 1116 125.693 1116 124.08L1116 96.36C1116 94.8933 1116.51 93.5733 1117.54 92.4C1118.71 91.3733 1120.03 90.86 1121.5 90.86L1181.56 90.86C1188.45 90.86 1193.73 89.1733 1197.4 85.8C1201.21 82.4267 1203.12 77.5867 1203.12 71.28C1203.12 65.12 1201.21 60.28 1197.4 56.76C1193.73 53.24 1188.45 51.48 1181.56 51.48L1121.5 51.48C1120.03 51.48 1118.71 50.9667 1117.54 49.94C1116.51 48.9133 1116 47.5933 1116 45.98L1116 18.48ZM1113.8 208.467C1113.8 190.281 1118.13 176.274 1126.78 166.447C1135.43 156.621 1147.61 151.267 1163.3 150.387C1165.21 150.241 1168.51 150.167 1173.2 150.167C1177.89 150.167 1181.19 150.241 1183.1 150.387C1198.65 151.267 1210.75 156.767 1219.4 166.887C1228.2 177.007 1232.6 190.867 1232.6 208.467C1232.6 226.214 1228.2 240.147 1219.4 250.267C1210.75 260.387 1198.65 265.887 1183.1 266.767C1181.19 266.914 1177.89 266.987 1173.2 266.987C1168.51 266.987 1165.21 266.914 1163.3 266.767C1147.61 265.887 1135.43 260.534 1126.78 250.707C1118.13 240.881 1113.8 226.801 1113.8 208.467ZM1140.64 208.467C1140.64 214.921 1142.55 219.687 1146.36 222.767C1150.32 225.847 1156.33 227.607 1164.4 228.047C1165.87 228.194 1168.8 228.267 1173.2 228.267C1177.6 228.267 1180.53 228.194 1182 228.047C1189.92 227.607 1195.86 225.774 1199.82 222.547C1203.78 219.467 1205.76 214.774 1205.76 208.467C1205.76 196.294 1197.84 189.841 1182 189.107L1173.2 188.887L1164.4 189.107C1156.33 189.401 1150.32 191.087 1146.36 194.167C1142.55 197.394 1140.64 202.161 1140.64 208.467ZM1116 294.339C1116 292.726 1116.51 291.406 1117.54 290.379C1118.57 289.353 1119.89 288.839 1121.5 288.839L1224.9 288.839C1226.51 288.839 1227.83 289.353 1228.86 290.379C1229.89 291.406 1230.4 292.726 1230.4 294.339L1230.4 318.319C1230.4 319.933 1229.89 321.253 1228.86 322.279C1227.83 323.306 1226.51 323.819 1224.9 323.819L1217.42 323.819C1221.82 327.193 1225.41 331.666 1228.2 337.239C1231.13 342.959 1232.6 349.339 1232.6 356.379C1232.6 372.513 1226.29 383.659 1213.68 389.819C1219.25 393.339 1223.8 398.253 1227.32 404.559C1230.84 410.866 1232.6 417.613 1232.6 424.799C1232.6 436.826 1228.49 446.579 1220.28 454.059C1212.21 461.686 1200.11 465.499 1183.98 465.499L1121.5 465.499C1120.03 465.499 1118.71 464.986 1117.54 463.959C1116.51 462.933 1116 461.613 1116 459.999L1116 434.479C1116 432.866 1116.51 431.473 1117.54 430.299C1118.57 429.273 1119.89 428.759 1121.5 428.759L1182.44 428.759C1189.77 428.759 1195.05 427.219 1198.28 424.139C1201.51 421.206 1203.12 417.173 1203.12 412.039C1203.12 407.346 1201.43 403.459 1198.06 400.379C1194.83 397.299 1189.63 395.759 1182.44 395.759L1121.5 395.759C1120.03 395.759 1118.71 395.246 1117.54 394.219C1116.51 393.193 1116 391.873 1116 390.259L1116 364.739C1116 363.126 1116.51 361.806 1117.54 360.779C1118.57 359.753 1119.89 359.239 1121.5 359.239L1182.44 359.239C1189.63 359.239 1194.83 357.626 1198.06 354.399C1201.43 351.319 1203.12 347.359 1203.12 342.519C1203.12 337.826 1201.43 333.866 1198.06 330.639C1194.83 327.559 1189.7 326.019 1182.66 326.019L1121.5 326.019C1120.03 326.019 1118.71 325.506 1117.54 324.479C1116.51 323.453 1116 322.133 1116 320.519L1116 294.339ZM1113.8 524.683C1113.8 516.909 1115.27 509.796 1118.2 503.343C1121.28 497.036 1125.39 492.049 1130.52 488.383C1135.8 484.863 1141.59 483.103 1147.9 483.103C1158.02 483.103 1166.16 487.209 1172.32 495.423C1178.48 503.783 1182.73 515.223 1185.08 529.743L1189.26 557.243L1192.34 557.243C1197.91 557.243 1202.02 556.069 1204.66 553.723C1207.3 551.376 1208.62 547.416 1208.62 541.843C1208.62 538.469 1208.03 535.683 1206.86 533.483C1205.69 531.283 1204.07 529.009 1202.02 526.663C1200.26 524.609 1199.09 523.069 1198.5 522.043C1197.33 521.603 1196.74 520.796 1196.74 519.623L1196.74 495.643C1196.74 494.176 1197.18 492.929 1198.06 491.903C1199.09 491.023 1200.26 490.656 1201.58 490.803C1205.54 490.949 1209.94 492.856 1214.78 496.523C1219.62 500.336 1223.8 506.056 1227.32 513.683C1230.84 521.456 1232.6 530.989 1232.6 542.283C1232.6 560.323 1228.57 573.669 1220.5 582.323C1212.58 590.976 1201.87 595.303 1188.38 595.303L1121.5 595.303C1120.03 595.303 1118.71 594.789 1117.54 593.763C1116.51 592.736 1116 591.416 1116 589.803L1116 564.283C1116 562.816 1116.51 561.496 1117.54 560.323C1118.71 559.296 1120.03 558.783 1121.5 558.783L1129.2 558.783C1124.65 555.556 1120.91 551.009 1117.98 545.143C1115.19 539.423 1113.8 532.603 1113.8 524.683ZM1138.88 535.023C1138.88 541.769 1141.08 547.196 1145.48 551.303C1149.88 555.556 1156.33 557.683 1164.84 557.683L1167.92 557.683L1164.62 538.983C1162.27 525.783 1157.65 519.183 1150.76 519.183C1147.09 519.183 1144.16 520.723 1141.96 523.803C1139.91 526.883 1138.88 530.623 1138.88 535.023Z" fill="black" fill-opacity="0.05"/>
<path d="M717.403 697L717.403 704C708.603 704 706.737 709 706.903 711.5C706.903 717.5 713.903 719 717.403 719L717.403 725.5C701.803 725.5 698.57 716.167 698.903 711.5C698.903 697.9 711.236 696.167 717.403 697Z" fill="#794CFB"/>
<rect x="609.556" y="594.903" width="22" height="8.48528" transform="rotate(-135 609.556 594.903)" fill="#794CFB"/>
<circle cx="1268.4" cy="230.5" r="15" transform="rotate(-90 1268.4 230.5)" stroke="#794CFB" stroke-width="5"/>
<rect x="825.903" y="680.849" width="21" height="21" transform="rotate(-135 825.903 680.849)" stroke="#794CFB" stroke-width="5"/>
</svg>
