<svg width="1440" height="852" viewBox="0 0 1440 852" fill="none" xmlns="http://www.w3.org/2000/svg">
<mask id="mask0" mask-type="alpha" maskUnits="userSpaceOnUse" x="0" y="0" width="1440" height="870">
<rect width="1440" height="870" fill="#C4C4C4"/>
</mask>
<g mask="url(#mask0)">
<mask id="mask1" mask-type="alpha" maskUnits="userSpaceOnUse" x="0" y="2" width="1440" height="850">
<rect y="2" width="1440" height="850" fill="#C4C4C4"/>
</mask>
<g mask="url(#mask1)">
<rect x="-149" y="2" width="900" height="900"/>
<rect x="700" y="2" width="900" height="900"/>
<mask id="mask2" mask-type="alpha" maskUnits="userSpaceOnUse" x="0" y="2" width="1440" height="868">
<rect y="2" width="1440" height="868" fill="#F6F7FB"/>
</mask>
<g mask="url(#mask2)">
<rect y="2" width="1440" height="960"/>
<rect y="2" width="1440" height="960" fill="url(#paint0_linear)"/>
</g>
<rect y="2" width="1440" height="868" fill="#F6F7FB" fill-opacity="0.6"/>
<path d="M1206 147.48C1206 145.867 1206.51 144.547 1207.54 143.52C1208.57 142.493 1209.89 141.98 1211.5 141.98L1314.9 141.98C1316.51 141.98 1317.83 142.493 1318.86 143.52C1319.89 144.547 1320.4 145.867 1320.4 147.48L1320.4 172.78C1320.4 174.393 1319.89 175.713 1318.86 176.74C1317.83 177.913 1316.51 178.5 1314.9 178.5L1306.54 178.5C1311.38 182.46 1315.27 187.52 1318.2 193.68C1321.13 199.987 1322.6 207.1 1322.6 215.02C1322.6 227.927 1318.2 238.413 1309.4 246.48C1300.75 254.547 1288.57 258.58 1272.88 258.58L1211.5 258.58C1210.03 258.58 1208.71 258.067 1207.54 257.04C1206.51 256.013 1206 254.693 1206 253.08L1206 225.36C1206 223.893 1206.51 222.573 1207.54 221.4C1208.71 220.373 1210.03 219.86 1211.5 219.86L1271.56 219.86C1278.45 219.86 1283.73 218.173 1287.4 214.8C1291.21 211.427 1293.12 206.587 1293.12 200.28C1293.12 194.12 1291.21 189.28 1287.4 185.76C1283.73 182.24 1278.45 180.48 1271.56 180.48L1211.5 180.48C1210.03 180.48 1208.71 179.967 1207.54 178.94C1206.51 177.913 1206 176.593 1206 174.98L1206 147.48ZM1203.8 337.467C1203.8 319.281 1208.13 305.274 1216.78 295.447C1225.43 285.621 1237.61 280.267 1253.3 279.387C1255.21 279.241 1258.51 279.167 1263.2 279.167C1267.89 279.167 1271.19 279.241 1273.1 279.387C1288.65 280.267 1300.75 285.767 1309.4 295.887C1318.2 306.007 1322.6 319.867 1322.6 337.467C1322.6 355.214 1318.2 369.147 1309.4 379.267C1300.75 389.387 1288.65 394.887 1273.1 395.767C1271.19 395.914 1267.89 395.987 1263.2 395.987C1258.51 395.987 1255.21 395.914 1253.3 395.767C1237.61 394.887 1225.43 389.534 1216.78 379.707C1208.13 369.881 1203.8 355.801 1203.8 337.467ZM1230.64 337.467C1230.64 343.921 1232.55 348.687 1236.36 351.767C1240.32 354.847 1246.33 356.607 1254.4 357.047C1255.87 357.194 1258.8 357.267 1263.2 357.267C1267.6 357.267 1270.53 357.194 1272 357.047C1279.92 356.607 1285.86 354.774 1289.82 351.547C1293.78 348.467 1295.76 343.774 1295.76 337.467C1295.76 325.294 1287.84 318.841 1272 318.107L1263.2 317.887L1254.4 318.107C1246.33 318.401 1240.32 320.087 1236.36 323.167C1232.55 326.394 1230.64 331.161 1230.64 337.467ZM1206 423.339C1206 421.726 1206.51 420.406 1207.54 419.379C1208.57 418.353 1209.89 417.839 1211.5 417.839L1314.9 417.839C1316.51 417.839 1317.83 418.353 1318.86 419.379C1319.89 420.406 1320.4 421.726 1320.4 423.339L1320.4 447.319C1320.4 448.933 1319.89 450.253 1318.86 451.279C1317.83 452.306 1316.51 452.819 1314.9 452.819L1307.42 452.819C1311.82 456.193 1315.41 460.666 1318.2 466.239C1321.13 471.959 1322.6 478.339 1322.6 485.379C1322.6 501.513 1316.29 512.659 1303.68 518.819C1309.25 522.339 1313.8 527.253 1317.32 533.559C1320.84 539.866 1322.6 546.613 1322.6 553.799C1322.6 565.826 1318.49 575.579 1310.28 583.059C1302.21 590.686 1290.11 594.499 1273.98 594.499L1211.5 594.499C1210.03 594.499 1208.71 593.986 1207.54 592.959C1206.51 591.933 1206 590.613 1206 588.999L1206 563.479C1206 561.866 1206.51 560.473 1207.54 559.299C1208.57 558.273 1209.89 557.759 1211.5 557.759L1272.44 557.759C1279.77 557.759 1285.05 556.219 1288.28 553.139C1291.51 550.206 1293.12 546.173 1293.12 541.039C1293.12 536.346 1291.43 532.459 1288.06 529.379C1284.83 526.299 1279.63 524.759 1272.44 524.759L1211.5 524.759C1210.03 524.759 1208.71 524.246 1207.54 523.219C1206.51 522.193 1206 520.873 1206 519.259L1206 493.739C1206 492.126 1206.51 490.806 1207.54 489.779C1208.57 488.753 1209.89 488.239 1211.5 488.239L1272.44 488.239C1279.63 488.239 1284.83 486.626 1288.06 483.399C1291.43 480.319 1293.12 476.359 1293.12 471.519C1293.12 466.826 1291.43 462.866 1288.06 459.639C1284.83 456.559 1279.7 455.019 1272.66 455.019L1211.5 455.019C1210.03 455.019 1208.71 454.506 1207.54 453.479C1206.51 452.453 1206 451.133 1206 449.519L1206 423.339ZM1203.8 653.683C1203.8 645.909 1205.27 638.796 1208.2 632.343C1211.28 626.036 1215.39 621.049 1220.52 617.383C1225.8 613.863 1231.59 612.103 1237.9 612.103C1248.02 612.103 1256.16 616.209 1262.32 624.423C1268.48 632.783 1272.73 644.223 1275.08 658.743L1279.26 686.243L1282.34 686.243C1287.91 686.243 1292.02 685.069 1294.66 682.723C1297.3 680.376 1298.62 676.416 1298.62 670.843C1298.62 667.469 1298.03 664.683 1296.86 662.483C1295.69 660.283 1294.07 658.009 1292.02 655.663C1290.26 653.609 1289.09 652.069 1288.5 651.043C1287.33 650.603 1286.74 649.796 1286.74 648.623L1286.74 624.643C1286.74 623.176 1287.18 621.929 1288.06 620.903C1289.09 620.023 1290.26 619.656 1291.58 619.803C1295.54 619.949 1299.94 621.856 1304.78 625.523C1309.62 629.336 1313.8 635.056 1317.32 642.683C1320.84 650.456 1322.6 659.989 1322.6 671.283C1322.6 689.323 1318.57 702.669 1310.5 711.323C1302.58 719.976 1291.87 724.303 1278.38 724.303L1211.5 724.303C1210.03 724.303 1208.71 723.789 1207.54 722.763C1206.51 721.736 1206 720.416 1206 718.803L1206 693.283C1206 691.816 1206.51 690.496 1207.54 689.323C1208.71 688.296 1210.03 687.783 1211.5 687.783L1219.2 687.783C1214.65 684.556 1210.91 680.009 1207.98 674.143C1205.19 668.423 1203.8 661.603 1203.8 653.683ZM1228.88 664.023C1228.88 670.769 1231.08 676.196 1235.48 680.303C1239.88 684.556 1246.33 686.683 1254.84 686.683L1257.92 686.683L1254.62 667.983C1252.27 654.783 1247.65 648.183 1240.76 648.183C1237.09 648.183 1234.16 649.723 1231.96 652.803C1229.91 655.883 1228.88 659.623 1228.88 664.023Z" fill="black" fill-opacity="0.05"/>
</g>
<circle cx="96" cy="544.003" r="5" fill="#C4C4C4"/>
<circle cx="96" cy="679.003" r="5" fill="#C4C4C4"/>
<circle cx="96" cy="733.003" r="5" fill="#C4C4C4"/>
<circle cx="96" cy="706.003" r="5" fill="#C4C4C4"/>
<circle cx="96" cy="652.003" r="5" fill="#C4C4C4"/>
<circle cx="96" cy="625.003" r="5" fill="#C4C4C4"/>
<circle cx="96" cy="598.003" r="5" fill="#C4C4C4"/>
<circle cx="96" cy="571.003" r="5" fill="#C4C4C4"/>
<circle cx="123" cy="544.003" r="5" fill="#C4C4C4"/>
<circle cx="123" cy="679.003" r="5" fill="#C4C4C4"/>
<circle cx="123" cy="733.003" r="5" fill="#C4C4C4"/>
<circle cx="123" cy="706.003" r="5" fill="#C4C4C4"/>
<circle cx="123" cy="652.003" r="5" fill="#C4C4C4"/>
<circle cx="123" cy="625.003" r="5" fill="#C4C4C4"/>
<circle cx="123" cy="598.003" r="5" fill="#C4C4C4"/>
<circle cx="123" cy="571.003" r="5" fill="#C4C4C4"/>
<circle cx="150" cy="544.003" r="5" fill="#C4C4C4"/>
<circle cx="150" cy="679.003" r="5" fill="#C4C4C4"/>
<circle cx="150" cy="733.003" r="5" fill="#C4C4C4"/>
<circle cx="150" cy="706.003" r="5" fill="#C4C4C4"/>
<circle cx="150" cy="652.003" r="5" fill="#C4C4C4"/>
<circle cx="150" cy="625.003" r="5" fill="#C4C4C4"/>
<circle cx="150" cy="598.003" r="5" fill="#C4C4C4"/>
<circle cx="150" cy="571.003" r="5" fill="#C4C4C4"/>
<circle cx="177" cy="544.003" r="5" fill="#C4C4C4"/>
<circle cx="177" cy="679.003" r="5" fill="#C4C4C4"/>
<circle cx="177" cy="733.003" r="5" fill="#C4C4C4"/>
<circle cx="177" cy="706.003" r="5" fill="#C4C4C4"/>
<circle cx="177" cy="652.003" r="5" fill="#C4C4C4"/>
<circle cx="177" cy="625.003" r="5" fill="#C4C4C4"/>
<circle cx="177" cy="598.003" r="5" fill="#C4C4C4"/>
<circle cx="177" cy="571.003" r="5" fill="#C4C4C4"/>
<circle cx="204" cy="544.003" r="5" fill="#C4C4C4"/>
<circle cx="204" cy="679.003" r="5" fill="#C4C4C4"/>
<circle cx="204" cy="733.003" r="5" fill="#C4C4C4"/>
<circle cx="204" cy="706.003" r="5" fill="#C4C4C4"/>
<circle cx="204" cy="652.003" r="5" fill="#C4C4C4"/>
<circle cx="204" cy="625.003" r="5" fill="#C4C4C4"/>
<circle cx="204" cy="598.003" r="5" fill="#C4C4C4"/>
<circle cx="204" cy="571.003" r="5" fill="#C4C4C4"/>
<circle cx="231" cy="544.003" r="5" fill="#C4C4C4"/>
<circle cx="231" cy="679.003" r="5" fill="#C4C4C4"/>
<circle cx="231" cy="733.003" r="5" fill="#C4C4C4"/>
<circle cx="231" cy="706.003" r="5" fill="#C4C4C4"/>
<circle cx="231" cy="652.003" r="5" fill="#C4C4C4"/>
<circle cx="231" cy="625.003" r="5" fill="#C4C4C4"/>
<circle cx="231" cy="598.003" r="5" fill="#C4C4C4"/>
<circle cx="231" cy="571.003" r="5" fill="#C4C4C4"/>
<circle cx="258" cy="544.003" r="5" fill="#C4C4C4"/>
<circle cx="258" cy="679.003" r="5" fill="#C4C4C4"/>
<circle cx="258" cy="733.003" r="5" fill="#C4C4C4"/>
<circle cx="258" cy="706.003" r="5" fill="#C4C4C4"/>
<circle cx="258" cy="652.003" r="5" fill="#C4C4C4"/>
<circle cx="258" cy="625.003" r="5" fill="#C4C4C4"/>
<circle cx="258" cy="598.003" r="5" fill="#C4C4C4"/>
<circle cx="258" cy="571.003" r="5" fill="#C4C4C4"/>
<circle cx="285" cy="544.003" r="5" fill="#C4C4C4"/>
<circle cx="285" cy="679.003" r="5" fill="#C4C4C4"/>
<circle cx="285" cy="733.003" r="5" fill="#C4C4C4"/>
<circle cx="285" cy="706.003" r="5" fill="#C4C4C4"/>
<circle cx="285" cy="652.003" r="5" fill="#C4C4C4"/>
<circle cx="285" cy="625.003" r="5" fill="#C4C4C4"/>
<circle cx="285" cy="598.003" r="5" fill="#C4C4C4"/>
<circle cx="285" cy="571.003" r="5" fill="#C4C4C4"/>
<path d="M659.523 65.1746L659.523 72.1746C650.722 72.1746 648.856 77.1746 649.023 79.6746C649.023 85.6746 656.023 87.1746 659.523 87.1746L659.523 93.6746C643.923 93.6746 640.689 84.3412 641.023 79.6746C641.023 66.0746 653.356 64.3412 659.523 65.1746Z" fill="#794CFB"/>
<rect x="144.556" y="115.559" width="22" height="8.48528" transform="rotate(-135 144.556 115.559)" fill="#794CFB"/>
<circle cx="1363.5" cy="308.503" r="15" transform="rotate(-90 1363.5 308.503)" stroke="#794CFB" stroke-width="5"/>
<rect x="1089.39" y="761.237" width="21" height="21" transform="rotate(-135 1089.39 761.237)" stroke="#794CFB" stroke-width="5"/>
</g>
<defs>
<linearGradient id="paint0_linear" x1="720" y1="2" x2="720" y2="962" gradientUnits="userSpaceOnUse">
<stop stop-color="#794CFB" stop-opacity="0.17"/>
<stop offset="1" stop-color="white" stop-opacity="0"/>
</linearGradient>
</defs>
</svg>
