<svg width="705" height="906" viewBox="0 0 705 906" fill="none" xmlns="http://www.w3.org/2000/svg">
<path d="M0.00842844 38.3609C0.816376 -2.05132 41.4157 -2.72486 61.6144 1.9899L668.585 137.371C707.366 145.453 707.635 183.845 702.922 202.03L561.532 670.812C551.028 703.142 520.124 722.674 505.985 728.4L50.5051 904.193C9.29982 913.083 -0.328216 887.018 0.00842844 872.873V38.3609Z" fill="#794CFB"/>
<circle cx="10" cy="306" r="5" fill="#C4C4C4"/>
<circle cx="10" cy="441" r="5" fill="#C4C4C4"/>
<circle cx="10" cy="495" r="5" fill="#C4C4C4"/>
<circle cx="10" cy="468" r="5" fill="#C4C4C4"/>
<circle cx="10" cy="414" r="5" fill="#C4C4C4"/>
<circle cx="10" cy="387" r="5" fill="#C4C4C4"/>
<circle cx="10" cy="360" r="5" fill="#C4C4C4"/>
<circle cx="10" cy="333" r="5" fill="#C4C4C4"/>
<circle cx="37" cy="306" r="5" fill="#C4C4C4"/>
<circle cx="37" cy="441" r="5" fill="#C4C4C4"/>
<circle cx="37" cy="495" r="5" fill="#C4C4C4"/>
<circle cx="37" cy="468" r="5" fill="#C4C4C4"/>
<circle cx="37" cy="414" r="5" fill="#C4C4C4"/>
<circle cx="37" cy="387" r="5" fill="#C4C4C4"/>
<circle cx="37" cy="360" r="5" fill="#C4C4C4"/>
<circle cx="37" cy="333" r="5" fill="#C4C4C4"/>
<circle cx="64" cy="306" r="5" fill="#C4C4C4"/>
<circle cx="64" cy="441" r="5" fill="#C4C4C4"/>
<circle cx="64" cy="495" r="5" fill="#C4C4C4"/>
<circle cx="64" cy="468" r="5" fill="#C4C4C4"/>
<circle cx="64" cy="414" r="5" fill="#C4C4C4"/>
<circle cx="64" cy="387" r="5" fill="#C4C4C4"/>
<circle cx="64" cy="360" r="5" fill="#C4C4C4"/>
<circle cx="64" cy="333" r="5" fill="#C4C4C4"/>
<circle cx="91" cy="306" r="5" fill="#C4C4C4"/>
<circle cx="91" cy="441" r="5" fill="#C4C4C4"/>
<circle cx="91" cy="495" r="5" fill="#C4C4C4"/>
<circle cx="91" cy="468" r="5" fill="#C4C4C4"/>
<circle cx="91" cy="414" r="5" fill="#C4C4C4"/>
<circle cx="91" cy="387" r="5" fill="#C4C4C4"/>
<circle cx="91" cy="360" r="5" fill="#C4C4C4"/>
<circle cx="91" cy="333" r="5" fill="#C4C4C4"/>
<circle cx="118" cy="306" r="5" fill="#C4C4C4"/>
<circle cx="118" cy="441" r="5" fill="#C4C4C4"/>
<circle cx="118" cy="495" r="5" fill="#C4C4C4"/>
<circle cx="118" cy="468" r="5" fill="#C4C4C4"/>
<circle cx="118" cy="414" r="5" fill="#C4C4C4"/>
<circle cx="118" cy="387" r="5" fill="#C4C4C4"/>
<circle cx="118" cy="360" r="5" fill="#C4C4C4"/>
<circle cx="118" cy="333" r="5" fill="#C4C4C4"/>
</svg>
