<svg viewBox="0 0 705 906" fill="none" xmlns="http://www.w3.org/2000/svg">
<path d="M0.00842844 38.3609C0.816376 -2.05132 41.4157 -2.72486 61.6144 1.9899L668.585 137.371C707.366 145.453 707.635 183.845 702.922 202.03L561.532 670.812C551.028 703.142 520.124 722.674 505.985 728.4L50.5051 904.193C9.29982 913.083 -0.328216 887.018 0.00842844 872.873V38.3609Z" fill="#794CFB"/>
<mask id="mask0" mask-type="alpha" maskUnits="userSpaceOnUse" x="0" y="296" width="135" height="213">
<rect y="296" width="135" height="213" fill="#C4C4C4"/>
</mask>
<g mask="url(#mask0)">
<circle cx="10" cy="308" r="5" fill="#C4C4C4"/>
<circle cx="10" cy="443" r="5" fill="#C4C4C4"/>
<circle cx="10" cy="497" r="5" fill="#C4C4C4"/>
<circle cx="10" cy="470" r="5" fill="#C4C4C4"/>
<circle cx="10" cy="416" r="5" fill="#C4C4C4"/>
<circle cx="10" cy="389" r="5" fill="#C4C4C4"/>
<circle cx="10" cy="362" r="5" fill="#C4C4C4"/>
<circle cx="10" cy="335" r="5" fill="#C4C4C4"/>
<circle cx="37" cy="308" r="5" fill="#C4C4C4"/>
<circle cx="37" cy="443" r="5" fill="#C4C4C4"/>
<circle cx="37" cy="497" r="5" fill="#C4C4C4"/>
<circle cx="37" cy="470" r="5" fill="#C4C4C4"/>
<circle cx="37" cy="416" r="5" fill="#C4C4C4"/>
<circle cx="37" cy="389" r="5" fill="#C4C4C4"/>
<circle cx="37" cy="362" r="5" fill="#C4C4C4"/>
<circle cx="37" cy="335" r="5" fill="#C4C4C4"/>
<circle cx="64" cy="308" r="5" fill="#C4C4C4"/>
<circle cx="64" cy="443" r="5" fill="#C4C4C4"/>
<circle cx="64" cy="497" r="5" fill="#C4C4C4"/>
<circle cx="64" cy="470" r="5" fill="#C4C4C4"/>
<circle cx="64" cy="416" r="5" fill="#C4C4C4"/>
<circle cx="64" cy="389" r="5" fill="#C4C4C4"/>
<circle cx="64" cy="362" r="5" fill="#C4C4C4"/>
<circle cx="64" cy="335" r="5" fill="#C4C4C4"/>
<circle cx="91" cy="308" r="5" fill="#C4C4C4"/>
<circle cx="91" cy="443" r="5" fill="#C4C4C4"/>
<circle cx="91" cy="497" r="5" fill="#C4C4C4"/>
<circle cx="91" cy="470" r="5" fill="#C4C4C4"/>
<circle cx="91" cy="416" r="5" fill="#C4C4C4"/>
<circle cx="91" cy="389" r="5" fill="#C4C4C4"/>
<circle cx="91" cy="362" r="5" fill="#C4C4C4"/>
<circle cx="91" cy="335" r="5" fill="#C4C4C4"/>
<circle cx="118" cy="308" r="5" fill="#C4C4C4"/>
<circle cx="118" cy="443" r="5" fill="#C4C4C4"/>
<circle cx="118" cy="497" r="5" fill="#C4C4C4"/>
<circle cx="118" cy="470" r="5" fill="#C4C4C4"/>
<circle cx="118" cy="416" r="5" fill="#C4C4C4"/>
<circle cx="118" cy="389" r="5" fill="#C4C4C4"/>
<circle cx="118" cy="362" r="5" fill="#C4C4C4"/>
<circle cx="118" cy="335" r="5" fill="#C4C4C4"/>
</g>
</svg>
